<?xml version="1.0" encoding="utf-8" standalone="no"?>
<!DOCTYPE svg PUBLIC "-//W3C//DTD SVG 1.1//EN"
  "http://www.w3.org/Graphics/SVG/1.1/DTD/svg11.dtd">
<svg xmlns:xlink="http://www.w3.org/1999/xlink" width="459.87625pt" height="310.86825pt" viewBox="0 0 459.87625 310.86825" xmlns="http://www.w3.org/2000/svg" version="1.1">
 <metadata>
  <rdf:RDF xmlns:dc="http://purl.org/dc/elements/1.1/" xmlns:cc="http://creativecommons.org/ns#" xmlns:rdf="http://www.w3.org/1999/02/22-rdf-syntax-ns#">
   <cc:Work>
    <dc:type rdf:resource="http://purl.org/dc/dcmitype/StillImage"/>
    <dc:date>2022-08-02T15:27:52.476488</dc:date>
    <dc:format>image/svg+xml</dc:format>
    <dc:creator>
     <cc:Agent>
      <dc:title>Matplotlib v3.5.2, https://matplotlib.org/</dc:title>
     </cc:Agent>
    </dc:creator>
   </cc:Work>
  </rdf:RDF>
 </metadata>
 <defs>
  <style type="text/css">*{stroke-linejoin: round; stroke-linecap: butt}</style>
 </defs>
 <g id="figure_1">
  <g id="patch_1">
   <path d="M 0 310.86825 
L 459.87625 310.86825 
L 459.87625 0 
L 0 0 
z
" style="fill: #ffffff"/>
  </g>
  <g id="axes_1">
   <g id="patch_2">
    <path d="M 51.378125 273.312 
L 408.498125 273.312 
L 408.498125 7.2 
L 51.378125 7.2 
z
" style="fill: #ffffff"/>
   </g>
   <g id="PathCollection_1">
    <defs>
     <path id="mc9492298d2" d="M 0 2 
C 0.530406 2 1.03916 1.789267 1.414214 1.414214 
C 1.789267 1.03916 2 0.530406 2 0 
C 2 -0.530406 1.789267 -1.03916 1.414214 -1.414214 
C 1.03916 -1.789267 0.530406 -2 0 -2 
C -0.530406 -2 -1.03916 -1.789267 -1.414214 -1.414214 
C -1.789267 -1.03916 -2 -0.530406 -2 0 
C -2 0.530406 -1.789267 1.03916 -1.414214 1.414214 
C -1.03916 1.789267 -0.530406 2 0 2 
z
" style="stroke: #000000"/>
    </defs>
    <g clip-path="url(#p99d1e2793b)">
     <use xlink:href="#mc9492298d2" x="67.610852" y="59.857348" style="stroke: #000000"/>
     <use xlink:href="#mc9492298d2" x="112.99561" y="60.600926" style="stroke: #000000"/>
     <use xlink:href="#mc9492298d2" x="132.541761" y="60.697066" style="stroke: #000000"/>
     <use xlink:href="#mc9492298d2" x="177.926519" y="62.976686" style="stroke: #000000"/>
     <use xlink:href="#mc9492298d2" x="197.47267" y="74.072468" style="stroke: #000000"/>
     <use xlink:href="#mc9492298d2" x="242.857428" y="28.24758" style="stroke: #000000"/>
     <use xlink:href="#mc9492298d2" x="262.40358" y="25.582832" style="stroke: #000000"/>
     <use xlink:href="#mc9492298d2" x="307.788337" y="27.057233" style="stroke: #000000"/>
     <use xlink:href="#mc9492298d2" x="327.334489" y="24.678918" style="stroke: #000000"/>
     <use xlink:href="#mc9492298d2" x="372.719246" y="37.731882" style="stroke: #000000"/>
     <use xlink:href="#mc9492298d2" x="392.265398" y="110.237481" style="stroke: #000000"/>
    </g>
   </g>
   <g id="PathCollection_2">
    <defs>
     <path id="mf22bdbd6ed" d="M -0 2.828427 
L 2.828427 0 
L 0 -2.828427 
L -2.828427 -0 
z
" style="stroke: #000000"/>
    </defs>
    <g clip-path="url(#p99d1e2793b)">
     <use xlink:href="#mf22bdbd6ed" x="67.610852" y="261.216" style="stroke: #000000"/>
     <use xlink:href="#mf22bdbd6ed" x="112.99561" y="204.02811" style="stroke: #000000"/>
     <use xlink:href="#mf22bdbd6ed" x="132.541761" y="179.454867" style="stroke: #000000"/>
     <use xlink:href="#mf22bdbd6ed" x="177.926519" y="122.882873" style="stroke: #000000"/>
     <use xlink:href="#mf22bdbd6ed" x="197.47267" y="99.074458" style="stroke: #000000"/>
     <use xlink:href="#mf22bdbd6ed" x="242.857428" y="48.419749" style="stroke: #000000"/>
     <use xlink:href="#mf22bdbd6ed" x="262.40358" y="31.50961" style="stroke: #000000"/>
     <use xlink:href="#mf22bdbd6ed" x="307.788337" y="19.296" style="stroke: #000000"/>
     <use xlink:href="#mf22bdbd6ed" x="327.334489" y="27.031119" style="stroke: #000000"/>
     <use xlink:href="#mf22bdbd6ed" x="372.719246" y="92.484386" style="stroke: #000000"/>
     <use xlink:href="#mf22bdbd6ed" x="392.265398" y="174.308088" style="stroke: #000000"/>
    </g>
   </g>
   <g id="matplotlib.axis_1">
    <g id="xtick_1">
     <g id="line2d_1">
      <defs>
       <path id="m04e34bf0b4" d="M 0 0 
L 0 3.5 
" style="stroke: #000000; stroke-width: 0.8"/>
      </defs>
      <g>
       <use xlink:href="#m04e34bf0b4" x="67.610852" y="273.312" style="stroke: #000000; stroke-width: 0.8"/>
      </g>
     </g>
     <g id="text_1">
      <!-- $\mathdefault{10^{19}}$ -->
      <g transform="translate(56.560852 287.910437)scale(0.1 -0.1)">
       <defs>
        <path id="DejaVuSans-31" d="M 794 531 
L 1825 531 
L 1825 4091 
L 703 3866 
L 703 4441 
L 1819 4666 
L 2450 4666 
L 2450 531 
L 3481 531 
L 3481 0 
L 794 0 
L 794 531 
z
" transform="scale(0.015625)"/>
        <path id="DejaVuSans-30" d="M 2034 4250 
Q 1547 4250 1301 3770 
Q 1056 3291 1056 2328 
Q 1056 1369 1301 889 
Q 1547 409 2034 409 
Q 2525 409 2770 889 
Q 3016 1369 3016 2328 
Q 3016 3291 2770 3770 
Q 2525 4250 2034 4250 
z
M 2034 4750 
Q 2819 4750 3233 4129 
Q 3647 3509 3647 2328 
Q 3647 1150 3233 529 
Q 2819 -91 2034 -91 
Q 1250 -91 836 529 
Q 422 1150 422 2328 
Q 422 3509 836 4129 
Q 1250 4750 2034 4750 
z
" transform="scale(0.015625)"/>
        <path id="DejaVuSans-39" d="M 703 97 
L 703 672 
Q 941 559 1184 500 
Q 1428 441 1663 441 
Q 2288 441 2617 861 
Q 2947 1281 2994 2138 
Q 2813 1869 2534 1725 
Q 2256 1581 1919 1581 
Q 1219 1581 811 2004 
Q 403 2428 403 3163 
Q 403 3881 828 4315 
Q 1253 4750 1959 4750 
Q 2769 4750 3195 4129 
Q 3622 3509 3622 2328 
Q 3622 1225 3098 567 
Q 2575 -91 1691 -91 
Q 1453 -91 1209 -44 
Q 966 3 703 97 
z
M 1959 2075 
Q 2384 2075 2632 2365 
Q 2881 2656 2881 3163 
Q 2881 3666 2632 3958 
Q 2384 4250 1959 4250 
Q 1534 4250 1286 3958 
Q 1038 3666 1038 3163 
Q 1038 2656 1286 2365 
Q 1534 2075 1959 2075 
z
" transform="scale(0.015625)"/>
       </defs>
       <use xlink:href="#DejaVuSans-31" transform="translate(0 0.765625)"/>
       <use xlink:href="#DejaVuSans-30" transform="translate(63.623047 0.765625)"/>
       <use xlink:href="#DejaVuSans-31" transform="translate(128.203125 39.046875)scale(0.7)"/>
       <use xlink:href="#DejaVuSans-39" transform="translate(172.739258 39.046875)scale(0.7)"/>
      </g>
     </g>
    </g>
    <g id="xtick_2">
     <g id="line2d_2">
      <g>
       <use xlink:href="#m04e34bf0b4" x="132.541761" y="273.312" style="stroke: #000000; stroke-width: 0.8"/>
      </g>
     </g>
     <g id="text_2">
      <!-- $\mathdefault{10^{20}}$ -->
      <g transform="translate(121.491761 287.910437)scale(0.1 -0.1)">
       <defs>
        <path id="DejaVuSans-32" d="M 1228 531 
L 3431 531 
L 3431 0 
L 469 0 
L 469 531 
Q 828 903 1448 1529 
Q 2069 2156 2228 2338 
Q 2531 2678 2651 2914 
Q 2772 3150 2772 3378 
Q 2772 3750 2511 3984 
Q 2250 4219 1831 4219 
Q 1534 4219 1204 4116 
Q 875 4013 500 3803 
L 500 4441 
Q 881 4594 1212 4672 
Q 1544 4750 1819 4750 
Q 2544 4750 2975 4387 
Q 3406 4025 3406 3419 
Q 3406 3131 3298 2873 
Q 3191 2616 2906 2266 
Q 2828 2175 2409 1742 
Q 1991 1309 1228 531 
z
" transform="scale(0.015625)"/>
       </defs>
       <use xlink:href="#DejaVuSans-31" transform="translate(0 0.765625)"/>
       <use xlink:href="#DejaVuSans-30" transform="translate(63.623047 0.765625)"/>
       <use xlink:href="#DejaVuSans-32" transform="translate(128.203125 39.046875)scale(0.7)"/>
       <use xlink:href="#DejaVuSans-30" transform="translate(172.739258 39.046875)scale(0.7)"/>
      </g>
     </g>
    </g>
    <g id="xtick_3">
     <g id="line2d_3">
      <g>
       <use xlink:href="#m04e34bf0b4" x="197.47267" y="273.312" style="stroke: #000000; stroke-width: 0.8"/>
      </g>
     </g>
     <g id="text_3">
      <!-- $\mathdefault{10^{21}}$ -->
      <g transform="translate(186.42267 287.910437)scale(0.1 -0.1)">
       <use xlink:href="#DejaVuSans-31" transform="translate(0 0.765625)"/>
       <use xlink:href="#DejaVuSans-30" transform="translate(63.623047 0.765625)"/>
       <use xlink:href="#DejaVuSans-32" transform="translate(128.203125 39.046875)scale(0.7)"/>
       <use xlink:href="#DejaVuSans-31" transform="translate(172.739258 39.046875)scale(0.7)"/>
      </g>
     </g>
    </g>
    <g id="xtick_4">
     <g id="line2d_4">
      <g>
       <use xlink:href="#m04e34bf0b4" x="262.40358" y="273.312" style="stroke: #000000; stroke-width: 0.8"/>
      </g>
     </g>
     <g id="text_4">
      <!-- $\mathdefault{10^{22}}$ -->
      <g transform="translate(251.35358 287.910437)scale(0.1 -0.1)">
       <use xlink:href="#DejaVuSans-31" transform="translate(0 0.765625)"/>
       <use xlink:href="#DejaVuSans-30" transform="translate(63.623047 0.765625)"/>
       <use xlink:href="#DejaVuSans-32" transform="translate(128.203125 39.046875)scale(0.7)"/>
       <use xlink:href="#DejaVuSans-32" transform="translate(172.739258 39.046875)scale(0.7)"/>
      </g>
     </g>
    </g>
    <g id="xtick_5">
     <g id="line2d_5">
      <g>
       <use xlink:href="#m04e34bf0b4" x="327.334489" y="273.312" style="stroke: #000000; stroke-width: 0.8"/>
      </g>
     </g>
     <g id="text_5">
      <!-- $\mathdefault{10^{23}}$ -->
      <g transform="translate(316.284489 287.910437)scale(0.1 -0.1)">
       <defs>
        <path id="DejaVuSans-33" d="M 2597 2516 
Q 3050 2419 3304 2112 
Q 3559 1806 3559 1356 
Q 3559 666 3084 287 
Q 2609 -91 1734 -91 
Q 1441 -91 1130 -33 
Q 819 25 488 141 
L 488 750 
Q 750 597 1062 519 
Q 1375 441 1716 441 
Q 2309 441 2620 675 
Q 2931 909 2931 1356 
Q 2931 1769 2642 2001 
Q 2353 2234 1838 2234 
L 1294 2234 
L 1294 2753 
L 1863 2753 
Q 2328 2753 2575 2939 
Q 2822 3125 2822 3475 
Q 2822 3834 2567 4026 
Q 2313 4219 1838 4219 
Q 1578 4219 1281 4162 
Q 984 4106 628 3988 
L 628 4550 
Q 988 4650 1302 4700 
Q 1616 4750 1894 4750 
Q 2613 4750 3031 4423 
Q 3450 4097 3450 3541 
Q 3450 3153 3228 2886 
Q 3006 2619 2597 2516 
z
" transform="scale(0.015625)"/>
       </defs>
       <use xlink:href="#DejaVuSans-31" transform="translate(0 0.765625)"/>
       <use xlink:href="#DejaVuSans-30" transform="translate(63.623047 0.765625)"/>
       <use xlink:href="#DejaVuSans-32" transform="translate(128.203125 39.046875)scale(0.7)"/>
       <use xlink:href="#DejaVuSans-33" transform="translate(172.739258 39.046875)scale(0.7)"/>
      </g>
     </g>
    </g>
    <g id="xtick_6">
     <g id="line2d_6">
      <g>
       <use xlink:href="#m04e34bf0b4" x="392.265398" y="273.312" style="stroke: #000000; stroke-width: 0.8"/>
      </g>
     </g>
     <g id="text_6">
      <!-- $\mathdefault{10^{24}}$ -->
      <g transform="translate(381.215398 287.910437)scale(0.1 -0.1)">
       <defs>
        <path id="DejaVuSans-34" d="M 2419 4116 
L 825 1625 
L 2419 1625 
L 2419 4116 
z
M 2253 4666 
L 3047 4666 
L 3047 1625 
L 3713 1625 
L 3713 1100 
L 3047 1100 
L 3047 0 
L 2419 0 
L 2419 1100 
L 313 1100 
L 313 1709 
L 2253 4666 
z
" transform="scale(0.015625)"/>
       </defs>
       <use xlink:href="#DejaVuSans-31" transform="translate(0 0.765625)"/>
       <use xlink:href="#DejaVuSans-30" transform="translate(63.623047 0.765625)"/>
       <use xlink:href="#DejaVuSans-32" transform="translate(128.203125 39.046875)scale(0.7)"/>
       <use xlink:href="#DejaVuSans-34" transform="translate(172.739258 39.046875)scale(0.7)"/>
      </g>
     </g>
    </g>
    <g id="xtick_7">
     <g id="line2d_7">
      <defs>
       <path id="mb61ba7caa3" d="M 0 0 
L 0 2 
" style="stroke: #000000; stroke-width: 0.6"/>
      </defs>
      <g>
       <use xlink:href="#mb61ba7caa3" x="53.206011" y="273.312" style="stroke: #000000; stroke-width: 0.6"/>
      </g>
     </g>
    </g>
    <g id="xtick_8">
     <g id="line2d_8">
      <g>
       <use xlink:href="#mb61ba7caa3" x="57.552927" y="273.312" style="stroke: #000000; stroke-width: 0.6"/>
      </g>
     </g>
    </g>
    <g id="xtick_9">
     <g id="line2d_9">
      <g>
       <use xlink:href="#mb61ba7caa3" x="61.318397" y="273.312" style="stroke: #000000; stroke-width: 0.6"/>
      </g>
     </g>
    </g>
    <g id="xtick_10">
     <g id="line2d_10">
      <g>
       <use xlink:href="#mb61ba7caa3" x="64.639777" y="273.312" style="stroke: #000000; stroke-width: 0.6"/>
      </g>
     </g>
    </g>
    <g id="xtick_11">
     <g id="line2d_11">
      <g>
       <use xlink:href="#mb61ba7caa3" x="87.157004" y="273.312" style="stroke: #000000; stroke-width: 0.6"/>
      </g>
     </g>
    </g>
    <g id="xtick_12">
     <g id="line2d_12">
      <g>
       <use xlink:href="#mb61ba7caa3" x="98.590769" y="273.312" style="stroke: #000000; stroke-width: 0.6"/>
      </g>
     </g>
    </g>
    <g id="xtick_13">
     <g id="line2d_13">
      <g>
       <use xlink:href="#mb61ba7caa3" x="106.703155" y="273.312" style="stroke: #000000; stroke-width: 0.6"/>
      </g>
     </g>
    </g>
    <g id="xtick_14">
     <g id="line2d_14">
      <g>
       <use xlink:href="#mb61ba7caa3" x="112.99561" y="273.312" style="stroke: #000000; stroke-width: 0.6"/>
      </g>
     </g>
    </g>
    <g id="xtick_15">
     <g id="line2d_15">
      <g>
       <use xlink:href="#mb61ba7caa3" x="118.13692" y="273.312" style="stroke: #000000; stroke-width: 0.6"/>
      </g>
     </g>
    </g>
    <g id="xtick_16">
     <g id="line2d_16">
      <g>
       <use xlink:href="#mb61ba7caa3" x="122.483836" y="273.312" style="stroke: #000000; stroke-width: 0.6"/>
      </g>
     </g>
    </g>
    <g id="xtick_17">
     <g id="line2d_17">
      <g>
       <use xlink:href="#mb61ba7caa3" x="126.249306" y="273.312" style="stroke: #000000; stroke-width: 0.6"/>
      </g>
     </g>
    </g>
    <g id="xtick_18">
     <g id="line2d_18">
      <g>
       <use xlink:href="#mb61ba7caa3" x="129.570686" y="273.312" style="stroke: #000000; stroke-width: 0.6"/>
      </g>
     </g>
    </g>
    <g id="xtick_19">
     <g id="line2d_19">
      <g>
       <use xlink:href="#mb61ba7caa3" x="152.087913" y="273.312" style="stroke: #000000; stroke-width: 0.6"/>
      </g>
     </g>
    </g>
    <g id="xtick_20">
     <g id="line2d_20">
      <g>
       <use xlink:href="#mb61ba7caa3" x="163.521678" y="273.312" style="stroke: #000000; stroke-width: 0.6"/>
      </g>
     </g>
    </g>
    <g id="xtick_21">
     <g id="line2d_21">
      <g>
       <use xlink:href="#mb61ba7caa3" x="171.634064" y="273.312" style="stroke: #000000; stroke-width: 0.6"/>
      </g>
     </g>
    </g>
    <g id="xtick_22">
     <g id="line2d_22">
      <g>
       <use xlink:href="#mb61ba7caa3" x="177.926519" y="273.312" style="stroke: #000000; stroke-width: 0.6"/>
      </g>
     </g>
    </g>
    <g id="xtick_23">
     <g id="line2d_23">
      <g>
       <use xlink:href="#mb61ba7caa3" x="183.067829" y="273.312" style="stroke: #000000; stroke-width: 0.6"/>
      </g>
     </g>
    </g>
    <g id="xtick_24">
     <g id="line2d_24">
      <g>
       <use xlink:href="#mb61ba7caa3" x="187.414745" y="273.312" style="stroke: #000000; stroke-width: 0.6"/>
      </g>
     </g>
    </g>
    <g id="xtick_25">
     <g id="line2d_25">
      <g>
       <use xlink:href="#mb61ba7caa3" x="191.180215" y="273.312" style="stroke: #000000; stroke-width: 0.6"/>
      </g>
     </g>
    </g>
    <g id="xtick_26">
     <g id="line2d_26">
      <g>
       <use xlink:href="#mb61ba7caa3" x="194.501595" y="273.312" style="stroke: #000000; stroke-width: 0.6"/>
      </g>
     </g>
    </g>
    <g id="xtick_27">
     <g id="line2d_27">
      <g>
       <use xlink:href="#mb61ba7caa3" x="217.018822" y="273.312" style="stroke: #000000; stroke-width: 0.6"/>
      </g>
     </g>
    </g>
    <g id="xtick_28">
     <g id="line2d_28">
      <g>
       <use xlink:href="#mb61ba7caa3" x="228.452587" y="273.312" style="stroke: #000000; stroke-width: 0.6"/>
      </g>
     </g>
    </g>
    <g id="xtick_29">
     <g id="line2d_29">
      <g>
       <use xlink:href="#mb61ba7caa3" x="236.564973" y="273.312" style="stroke: #000000; stroke-width: 0.6"/>
      </g>
     </g>
    </g>
    <g id="xtick_30">
     <g id="line2d_30">
      <g>
       <use xlink:href="#mb61ba7caa3" x="242.857428" y="273.312" style="stroke: #000000; stroke-width: 0.6"/>
      </g>
     </g>
    </g>
    <g id="xtick_31">
     <g id="line2d_31">
      <g>
       <use xlink:href="#mb61ba7caa3" x="247.998739" y="273.312" style="stroke: #000000; stroke-width: 0.6"/>
      </g>
     </g>
    </g>
    <g id="xtick_32">
     <g id="line2d_32">
      <g>
       <use xlink:href="#mb61ba7caa3" x="252.345654" y="273.312" style="stroke: #000000; stroke-width: 0.6"/>
      </g>
     </g>
    </g>
    <g id="xtick_33">
     <g id="line2d_33">
      <g>
       <use xlink:href="#mb61ba7caa3" x="256.111124" y="273.312" style="stroke: #000000; stroke-width: 0.6"/>
      </g>
     </g>
    </g>
    <g id="xtick_34">
     <g id="line2d_34">
      <g>
       <use xlink:href="#mb61ba7caa3" x="259.432504" y="273.312" style="stroke: #000000; stroke-width: 0.6"/>
      </g>
     </g>
    </g>
    <g id="xtick_35">
     <g id="line2d_35">
      <g>
       <use xlink:href="#mb61ba7caa3" x="281.949731" y="273.312" style="stroke: #000000; stroke-width: 0.6"/>
      </g>
     </g>
    </g>
    <g id="xtick_36">
     <g id="line2d_36">
      <g>
       <use xlink:href="#mb61ba7caa3" x="293.383496" y="273.312" style="stroke: #000000; stroke-width: 0.6"/>
      </g>
     </g>
    </g>
    <g id="xtick_37">
     <g id="line2d_37">
      <g>
       <use xlink:href="#mb61ba7caa3" x="301.495882" y="273.312" style="stroke: #000000; stroke-width: 0.6"/>
      </g>
     </g>
    </g>
    <g id="xtick_38">
     <g id="line2d_38">
      <g>
       <use xlink:href="#mb61ba7caa3" x="307.788337" y="273.312" style="stroke: #000000; stroke-width: 0.6"/>
      </g>
     </g>
    </g>
    <g id="xtick_39">
     <g id="line2d_39">
      <g>
       <use xlink:href="#mb61ba7caa3" x="312.929648" y="273.312" style="stroke: #000000; stroke-width: 0.6"/>
      </g>
     </g>
    </g>
    <g id="xtick_40">
     <g id="line2d_40">
      <g>
       <use xlink:href="#mb61ba7caa3" x="317.276564" y="273.312" style="stroke: #000000; stroke-width: 0.6"/>
      </g>
     </g>
    </g>
    <g id="xtick_41">
     <g id="line2d_41">
      <g>
       <use xlink:href="#mb61ba7caa3" x="321.042033" y="273.312" style="stroke: #000000; stroke-width: 0.6"/>
      </g>
     </g>
    </g>
    <g id="xtick_42">
     <g id="line2d_42">
      <g>
       <use xlink:href="#mb61ba7caa3" x="324.363413" y="273.312" style="stroke: #000000; stroke-width: 0.6"/>
      </g>
     </g>
    </g>
    <g id="xtick_43">
     <g id="line2d_43">
      <g>
       <use xlink:href="#mb61ba7caa3" x="346.88064" y="273.312" style="stroke: #000000; stroke-width: 0.6"/>
      </g>
     </g>
    </g>
    <g id="xtick_44">
     <g id="line2d_44">
      <g>
       <use xlink:href="#mb61ba7caa3" x="358.314405" y="273.312" style="stroke: #000000; stroke-width: 0.6"/>
      </g>
     </g>
    </g>
    <g id="xtick_45">
     <g id="line2d_45">
      <g>
       <use xlink:href="#mb61ba7caa3" x="366.426791" y="273.312" style="stroke: #000000; stroke-width: 0.6"/>
      </g>
     </g>
    </g>
    <g id="xtick_46">
     <g id="line2d_46">
      <g>
       <use xlink:href="#mb61ba7caa3" x="372.719246" y="273.312" style="stroke: #000000; stroke-width: 0.6"/>
      </g>
     </g>
    </g>
    <g id="xtick_47">
     <g id="line2d_47">
      <g>
       <use xlink:href="#mb61ba7caa3" x="377.860557" y="273.312" style="stroke: #000000; stroke-width: 0.6"/>
      </g>
     </g>
    </g>
    <g id="xtick_48">
     <g id="line2d_48">
      <g>
       <use xlink:href="#mb61ba7caa3" x="382.207473" y="273.312" style="stroke: #000000; stroke-width: 0.6"/>
      </g>
     </g>
    </g>
    <g id="xtick_49">
     <g id="line2d_49">
      <g>
       <use xlink:href="#mb61ba7caa3" x="385.972942" y="273.312" style="stroke: #000000; stroke-width: 0.6"/>
      </g>
     </g>
    </g>
    <g id="xtick_50">
     <g id="line2d_50">
      <g>
       <use xlink:href="#mb61ba7caa3" x="389.294322" y="273.312" style="stroke: #000000; stroke-width: 0.6"/>
      </g>
     </g>
    </g>
    <g id="text_7">
     <!-- Neutron Fluence [n/cm^2] -->
     <g transform="translate(163.392812 301.588562)scale(0.1 -0.1)">
      <defs>
       <path id="DejaVuSans-4e" d="M 628 4666 
L 1478 4666 
L 3547 763 
L 3547 4666 
L 4159 4666 
L 4159 0 
L 3309 0 
L 1241 3903 
L 1241 0 
L 628 0 
L 628 4666 
z
" transform="scale(0.015625)"/>
       <path id="DejaVuSans-65" d="M 3597 1894 
L 3597 1613 
L 953 1613 
Q 991 1019 1311 708 
Q 1631 397 2203 397 
Q 2534 397 2845 478 
Q 3156 559 3463 722 
L 3463 178 
Q 3153 47 2828 -22 
Q 2503 -91 2169 -91 
Q 1331 -91 842 396 
Q 353 884 353 1716 
Q 353 2575 817 3079 
Q 1281 3584 2069 3584 
Q 2775 3584 3186 3129 
Q 3597 2675 3597 1894 
z
M 3022 2063 
Q 3016 2534 2758 2815 
Q 2500 3097 2075 3097 
Q 1594 3097 1305 2825 
Q 1016 2553 972 2059 
L 3022 2063 
z
" transform="scale(0.015625)"/>
       <path id="DejaVuSans-75" d="M 544 1381 
L 544 3500 
L 1119 3500 
L 1119 1403 
Q 1119 906 1312 657 
Q 1506 409 1894 409 
Q 2359 409 2629 706 
Q 2900 1003 2900 1516 
L 2900 3500 
L 3475 3500 
L 3475 0 
L 2900 0 
L 2900 538 
Q 2691 219 2414 64 
Q 2138 -91 1772 -91 
Q 1169 -91 856 284 
Q 544 659 544 1381 
z
M 1991 3584 
L 1991 3584 
z
" transform="scale(0.015625)"/>
       <path id="DejaVuSans-74" d="M 1172 4494 
L 1172 3500 
L 2356 3500 
L 2356 3053 
L 1172 3053 
L 1172 1153 
Q 1172 725 1289 603 
Q 1406 481 1766 481 
L 2356 481 
L 2356 0 
L 1766 0 
Q 1100 0 847 248 
Q 594 497 594 1153 
L 594 3053 
L 172 3053 
L 172 3500 
L 594 3500 
L 594 4494 
L 1172 4494 
z
" transform="scale(0.015625)"/>
       <path id="DejaVuSans-72" d="M 2631 2963 
Q 2534 3019 2420 3045 
Q 2306 3072 2169 3072 
Q 1681 3072 1420 2755 
Q 1159 2438 1159 1844 
L 1159 0 
L 581 0 
L 581 3500 
L 1159 3500 
L 1159 2956 
Q 1341 3275 1631 3429 
Q 1922 3584 2338 3584 
Q 2397 3584 2469 3576 
Q 2541 3569 2628 3553 
L 2631 2963 
z
" transform="scale(0.015625)"/>
       <path id="DejaVuSans-6f" d="M 1959 3097 
Q 1497 3097 1228 2736 
Q 959 2375 959 1747 
Q 959 1119 1226 758 
Q 1494 397 1959 397 
Q 2419 397 2687 759 
Q 2956 1122 2956 1747 
Q 2956 2369 2687 2733 
Q 2419 3097 1959 3097 
z
M 1959 3584 
Q 2709 3584 3137 3096 
Q 3566 2609 3566 1747 
Q 3566 888 3137 398 
Q 2709 -91 1959 -91 
Q 1206 -91 779 398 
Q 353 888 353 1747 
Q 353 2609 779 3096 
Q 1206 3584 1959 3584 
z
" transform="scale(0.015625)"/>
       <path id="DejaVuSans-6e" d="M 3513 2113 
L 3513 0 
L 2938 0 
L 2938 2094 
Q 2938 2591 2744 2837 
Q 2550 3084 2163 3084 
Q 1697 3084 1428 2787 
Q 1159 2491 1159 1978 
L 1159 0 
L 581 0 
L 581 3500 
L 1159 3500 
L 1159 2956 
Q 1366 3272 1645 3428 
Q 1925 3584 2291 3584 
Q 2894 3584 3203 3211 
Q 3513 2838 3513 2113 
z
" transform="scale(0.015625)"/>
       <path id="DejaVuSans-20" transform="scale(0.015625)"/>
       <path id="DejaVuSans-46" d="M 628 4666 
L 3309 4666 
L 3309 4134 
L 1259 4134 
L 1259 2759 
L 3109 2759 
L 3109 2228 
L 1259 2228 
L 1259 0 
L 628 0 
L 628 4666 
z
" transform="scale(0.015625)"/>
       <path id="DejaVuSans-6c" d="M 603 4863 
L 1178 4863 
L 1178 0 
L 603 0 
L 603 4863 
z
" transform="scale(0.015625)"/>
       <path id="DejaVuSans-63" d="M 3122 3366 
L 3122 2828 
Q 2878 2963 2633 3030 
Q 2388 3097 2138 3097 
Q 1578 3097 1268 2742 
Q 959 2388 959 1747 
Q 959 1106 1268 751 
Q 1578 397 2138 397 
Q 2388 397 2633 464 
Q 2878 531 3122 666 
L 3122 134 
Q 2881 22 2623 -34 
Q 2366 -91 2075 -91 
Q 1284 -91 818 406 
Q 353 903 353 1747 
Q 353 2603 823 3093 
Q 1294 3584 2113 3584 
Q 2378 3584 2631 3529 
Q 2884 3475 3122 3366 
z
" transform="scale(0.015625)"/>
       <path id="DejaVuSans-5b" d="M 550 4863 
L 1875 4863 
L 1875 4416 
L 1125 4416 
L 1125 -397 
L 1875 -397 
L 1875 -844 
L 550 -844 
L 550 4863 
z
" transform="scale(0.015625)"/>
       <path id="DejaVuSans-2f" d="M 1625 4666 
L 2156 4666 
L 531 -594 
L 0 -594 
L 1625 4666 
z
" transform="scale(0.015625)"/>
       <path id="DejaVuSans-6d" d="M 3328 2828 
Q 3544 3216 3844 3400 
Q 4144 3584 4550 3584 
Q 5097 3584 5394 3201 
Q 5691 2819 5691 2113 
L 5691 0 
L 5113 0 
L 5113 2094 
Q 5113 2597 4934 2840 
Q 4756 3084 4391 3084 
Q 3944 3084 3684 2787 
Q 3425 2491 3425 1978 
L 3425 0 
L 2847 0 
L 2847 2094 
Q 2847 2600 2669 2842 
Q 2491 3084 2119 3084 
Q 1678 3084 1418 2786 
Q 1159 2488 1159 1978 
L 1159 0 
L 581 0 
L 581 3500 
L 1159 3500 
L 1159 2956 
Q 1356 3278 1631 3431 
Q 1906 3584 2284 3584 
Q 2666 3584 2933 3390 
Q 3200 3197 3328 2828 
z
" transform="scale(0.015625)"/>
       <path id="DejaVuSans-5e" d="M 2988 4666 
L 4684 2925 
L 4056 2925 
L 2681 4159 
L 1306 2925 
L 678 2925 
L 2375 4666 
L 2988 4666 
z
" transform="scale(0.015625)"/>
       <path id="DejaVuSans-5d" d="M 1947 4863 
L 1947 -844 
L 622 -844 
L 622 -397 
L 1369 -397 
L 1369 4416 
L 622 4416 
L 622 4863 
L 1947 4863 
z
" transform="scale(0.015625)"/>
      </defs>
      <use xlink:href="#DejaVuSans-4e"/>
      <use xlink:href="#DejaVuSans-65" x="74.804688"/>
      <use xlink:href="#DejaVuSans-75" x="136.328125"/>
      <use xlink:href="#DejaVuSans-74" x="199.707031"/>
      <use xlink:href="#DejaVuSans-72" x="238.916016"/>
      <use xlink:href="#DejaVuSans-6f" x="277.779297"/>
      <use xlink:href="#DejaVuSans-6e" x="338.960938"/>
      <use xlink:href="#DejaVuSans-20" x="402.339844"/>
      <use xlink:href="#DejaVuSans-46" x="434.126953"/>
      <use xlink:href="#DejaVuSans-6c" x="491.646484"/>
      <use xlink:href="#DejaVuSans-75" x="519.429688"/>
      <use xlink:href="#DejaVuSans-65" x="582.808594"/>
      <use xlink:href="#DejaVuSans-6e" x="644.332031"/>
      <use xlink:href="#DejaVuSans-63" x="707.710938"/>
      <use xlink:href="#DejaVuSans-65" x="762.691406"/>
      <use xlink:href="#DejaVuSans-20" x="824.214844"/>
      <use xlink:href="#DejaVuSans-5b" x="856.001953"/>
      <use xlink:href="#DejaVuSans-6e" x="895.015625"/>
      <use xlink:href="#DejaVuSans-2f" x="958.394531"/>
      <use xlink:href="#DejaVuSans-63" x="992.085938"/>
      <use xlink:href="#DejaVuSans-6d" x="1047.066406"/>
      <use xlink:href="#DejaVuSans-5e" x="1144.478516"/>
      <use xlink:href="#DejaVuSans-32" x="1228.267578"/>
      <use xlink:href="#DejaVuSans-5d" x="1291.890625"/>
     </g>
    </g>
   </g>
   <g id="matplotlib.axis_2">
    <g id="ytick_1">
     <g id="line2d_51">
      <defs>
       <path id="me71e627cbf" d="M 0 0 
L -3.5 0 
" style="stroke: #000000; stroke-width: 0.8"/>
      </defs>
      <g>
       <use xlink:href="#me71e627cbf" x="51.378125" y="220.009864" style="stroke: #000000; stroke-width: 0.8"/>
      </g>
     </g>
     <g id="text_8">
      <!-- $\mathdefault{10^{-4}}$ -->
      <g transform="translate(20.878125 223.809083)scale(0.1 -0.1)">
       <defs>
        <path id="DejaVuSans-2212" d="M 678 2272 
L 4684 2272 
L 4684 1741 
L 678 1741 
L 678 2272 
z
" transform="scale(0.015625)"/>
       </defs>
       <use xlink:href="#DejaVuSans-31" transform="translate(0 0.684375)"/>
       <use xlink:href="#DejaVuSans-30" transform="translate(63.623047 0.684375)"/>
       <use xlink:href="#DejaVuSans-2212" transform="translate(128.203125 38.965625)scale(0.7)"/>
       <use xlink:href="#DejaVuSans-34" transform="translate(186.855469 38.965625)scale(0.7)"/>
      </g>
     </g>
    </g>
    <g id="ytick_2">
     <g id="line2d_52">
      <g>
       <use xlink:href="#me71e627cbf" x="51.378125" y="138.094196" style="stroke: #000000; stroke-width: 0.8"/>
      </g>
     </g>
     <g id="text_9">
      <!-- $\mathdefault{10^{-3}}$ -->
      <g transform="translate(20.878125 141.893415)scale(0.1 -0.1)">
       <use xlink:href="#DejaVuSans-31" transform="translate(0 0.765625)"/>
       <use xlink:href="#DejaVuSans-30" transform="translate(63.623047 0.765625)"/>
       <use xlink:href="#DejaVuSans-2212" transform="translate(128.203125 39.046875)scale(0.7)"/>
       <use xlink:href="#DejaVuSans-33" transform="translate(186.855469 39.046875)scale(0.7)"/>
      </g>
     </g>
    </g>
    <g id="ytick_3">
     <g id="line2d_53">
      <g>
       <use xlink:href="#me71e627cbf" x="51.378125" y="56.178528" style="stroke: #000000; stroke-width: 0.8"/>
      </g>
     </g>
     <g id="text_10">
      <!-- $\mathdefault{10^{-2}}$ -->
      <g transform="translate(20.878125 59.977747)scale(0.1 -0.1)">
       <use xlink:href="#DejaVuSans-31" transform="translate(0 0.765625)"/>
       <use xlink:href="#DejaVuSans-30" transform="translate(63.623047 0.765625)"/>
       <use xlink:href="#DejaVuSans-2212" transform="translate(128.203125 39.046875)scale(0.7)"/>
       <use xlink:href="#DejaVuSans-32" transform="translate(186.855469 39.046875)scale(0.7)"/>
      </g>
     </g>
    </g>
    <g id="ytick_4">
     <g id="line2d_54">
      <defs>
       <path id="m027328b526" d="M 0 0 
L -2 0 
" style="stroke: #000000; stroke-width: 0.6"/>
      </defs>
      <g>
       <use xlink:href="#m027328b526" x="51.378125" y="262.841825" style="stroke: #000000; stroke-width: 0.6"/>
      </g>
     </g>
    </g>
    <g id="ytick_5">
     <g id="line2d_55">
      <g>
       <use xlink:href="#m027328b526" x="51.378125" y="252.607385" style="stroke: #000000; stroke-width: 0.6"/>
      </g>
     </g>
    </g>
    <g id="ytick_6">
     <g id="line2d_56">
      <g>
       <use xlink:href="#m027328b526" x="51.378125" y="244.668937" style="stroke: #000000; stroke-width: 0.6"/>
      </g>
     </g>
    </g>
    <g id="ytick_7">
     <g id="line2d_57">
      <g>
       <use xlink:href="#m027328b526" x="51.378125" y="238.182752" style="stroke: #000000; stroke-width: 0.6"/>
      </g>
     </g>
    </g>
    <g id="ytick_8">
     <g id="line2d_58">
      <g>
       <use xlink:href="#m027328b526" x="51.378125" y="232.698761" style="stroke: #000000; stroke-width: 0.6"/>
      </g>
     </g>
    </g>
    <g id="ytick_9">
     <g id="line2d_59">
      <g>
       <use xlink:href="#m027328b526" x="51.378125" y="227.948312" style="stroke: #000000; stroke-width: 0.6"/>
      </g>
     </g>
    </g>
    <g id="ytick_10">
     <g id="line2d_60">
      <g>
       <use xlink:href="#m027328b526" x="51.378125" y="223.758119" style="stroke: #000000; stroke-width: 0.6"/>
      </g>
     </g>
    </g>
    <g id="ytick_11">
     <g id="line2d_61">
      <g>
       <use xlink:href="#m027328b526" x="51.378125" y="195.350791" style="stroke: #000000; stroke-width: 0.6"/>
      </g>
     </g>
    </g>
    <g id="ytick_12">
     <g id="line2d_62">
      <g>
       <use xlink:href="#m027328b526" x="51.378125" y="180.926157" style="stroke: #000000; stroke-width: 0.6"/>
      </g>
     </g>
    </g>
    <g id="ytick_13">
     <g id="line2d_63">
      <g>
       <use xlink:href="#m027328b526" x="51.378125" y="170.691717" style="stroke: #000000; stroke-width: 0.6"/>
      </g>
     </g>
    </g>
    <g id="ytick_14">
     <g id="line2d_64">
      <g>
       <use xlink:href="#m027328b526" x="51.378125" y="162.753269" style="stroke: #000000; stroke-width: 0.6"/>
      </g>
     </g>
    </g>
    <g id="ytick_15">
     <g id="line2d_65">
      <g>
       <use xlink:href="#m027328b526" x="51.378125" y="156.267084" style="stroke: #000000; stroke-width: 0.6"/>
      </g>
     </g>
    </g>
    <g id="ytick_16">
     <g id="line2d_66">
      <g>
       <use xlink:href="#m027328b526" x="51.378125" y="150.783093" style="stroke: #000000; stroke-width: 0.6"/>
      </g>
     </g>
    </g>
    <g id="ytick_17">
     <g id="line2d_67">
      <g>
       <use xlink:href="#m027328b526" x="51.378125" y="146.032644" style="stroke: #000000; stroke-width: 0.6"/>
      </g>
     </g>
    </g>
    <g id="ytick_18">
     <g id="line2d_68">
      <g>
       <use xlink:href="#m027328b526" x="51.378125" y="141.842451" style="stroke: #000000; stroke-width: 0.6"/>
      </g>
     </g>
    </g>
    <g id="ytick_19">
     <g id="line2d_69">
      <g>
       <use xlink:href="#m027328b526" x="51.378125" y="113.435123" style="stroke: #000000; stroke-width: 0.6"/>
      </g>
     </g>
    </g>
    <g id="ytick_20">
     <g id="line2d_70">
      <g>
       <use xlink:href="#m027328b526" x="51.378125" y="99.010489" style="stroke: #000000; stroke-width: 0.6"/>
      </g>
     </g>
    </g>
    <g id="ytick_21">
     <g id="line2d_71">
      <g>
       <use xlink:href="#m027328b526" x="51.378125" y="88.776049" style="stroke: #000000; stroke-width: 0.6"/>
      </g>
     </g>
    </g>
    <g id="ytick_22">
     <g id="line2d_72">
      <g>
       <use xlink:href="#m027328b526" x="51.378125" y="80.837601" style="stroke: #000000; stroke-width: 0.6"/>
      </g>
     </g>
    </g>
    <g id="ytick_23">
     <g id="line2d_73">
      <g>
       <use xlink:href="#m027328b526" x="51.378125" y="74.351416" style="stroke: #000000; stroke-width: 0.6"/>
      </g>
     </g>
    </g>
    <g id="ytick_24">
     <g id="line2d_74">
      <g>
       <use xlink:href="#m027328b526" x="51.378125" y="68.867425" style="stroke: #000000; stroke-width: 0.6"/>
      </g>
     </g>
    </g>
    <g id="ytick_25">
     <g id="line2d_75">
      <g>
       <use xlink:href="#m027328b526" x="51.378125" y="64.116976" style="stroke: #000000; stroke-width: 0.6"/>
      </g>
     </g>
    </g>
    <g id="ytick_26">
     <g id="line2d_76">
      <g>
       <use xlink:href="#m027328b526" x="51.378125" y="59.926783" style="stroke: #000000; stroke-width: 0.6"/>
      </g>
     </g>
    </g>
    <g id="ytick_27">
     <g id="line2d_77">
      <g>
       <use xlink:href="#m027328b526" x="51.378125" y="31.519455" style="stroke: #000000; stroke-width: 0.6"/>
      </g>
     </g>
    </g>
    <g id="ytick_28">
     <g id="line2d_78">
      <g>
       <use xlink:href="#m027328b526" x="51.378125" y="17.094821" style="stroke: #000000; stroke-width: 0.6"/>
      </g>
     </g>
    </g>
    <g id="text_11">
     <!-- Ni-59 Number Fraction [-] -->
     <g transform="translate(14.798438 204.070062)rotate(-90)scale(0.1 -0.1)">
      <defs>
       <path id="DejaVuSans-69" d="M 603 3500 
L 1178 3500 
L 1178 0 
L 603 0 
L 603 3500 
z
M 603 4863 
L 1178 4863 
L 1178 4134 
L 603 4134 
L 603 4863 
z
" transform="scale(0.015625)"/>
       <path id="DejaVuSans-2d" d="M 313 2009 
L 1997 2009 
L 1997 1497 
L 313 1497 
L 313 2009 
z
" transform="scale(0.015625)"/>
       <path id="DejaVuSans-35" d="M 691 4666 
L 3169 4666 
L 3169 4134 
L 1269 4134 
L 1269 2991 
Q 1406 3038 1543 3061 
Q 1681 3084 1819 3084 
Q 2600 3084 3056 2656 
Q 3513 2228 3513 1497 
Q 3513 744 3044 326 
Q 2575 -91 1722 -91 
Q 1428 -91 1123 -41 
Q 819 9 494 109 
L 494 744 
Q 775 591 1075 516 
Q 1375 441 1709 441 
Q 2250 441 2565 725 
Q 2881 1009 2881 1497 
Q 2881 1984 2565 2268 
Q 2250 2553 1709 2553 
Q 1456 2553 1204 2497 
Q 953 2441 691 2322 
L 691 4666 
z
" transform="scale(0.015625)"/>
       <path id="DejaVuSans-62" d="M 3116 1747 
Q 3116 2381 2855 2742 
Q 2594 3103 2138 3103 
Q 1681 3103 1420 2742 
Q 1159 2381 1159 1747 
Q 1159 1113 1420 752 
Q 1681 391 2138 391 
Q 2594 391 2855 752 
Q 3116 1113 3116 1747 
z
M 1159 2969 
Q 1341 3281 1617 3432 
Q 1894 3584 2278 3584 
Q 2916 3584 3314 3078 
Q 3713 2572 3713 1747 
Q 3713 922 3314 415 
Q 2916 -91 2278 -91 
Q 1894 -91 1617 61 
Q 1341 213 1159 525 
L 1159 0 
L 581 0 
L 581 4863 
L 1159 4863 
L 1159 2969 
z
" transform="scale(0.015625)"/>
       <path id="DejaVuSans-61" d="M 2194 1759 
Q 1497 1759 1228 1600 
Q 959 1441 959 1056 
Q 959 750 1161 570 
Q 1363 391 1709 391 
Q 2188 391 2477 730 
Q 2766 1069 2766 1631 
L 2766 1759 
L 2194 1759 
z
M 3341 1997 
L 3341 0 
L 2766 0 
L 2766 531 
Q 2569 213 2275 61 
Q 1981 -91 1556 -91 
Q 1019 -91 701 211 
Q 384 513 384 1019 
Q 384 1609 779 1909 
Q 1175 2209 1959 2209 
L 2766 2209 
L 2766 2266 
Q 2766 2663 2505 2880 
Q 2244 3097 1772 3097 
Q 1472 3097 1187 3025 
Q 903 2953 641 2809 
L 641 3341 
Q 956 3463 1253 3523 
Q 1550 3584 1831 3584 
Q 2591 3584 2966 3190 
Q 3341 2797 3341 1997 
z
" transform="scale(0.015625)"/>
      </defs>
      <use xlink:href="#DejaVuSans-4e"/>
      <use xlink:href="#DejaVuSans-69" x="74.804688"/>
      <use xlink:href="#DejaVuSans-2d" x="102.587891"/>
      <use xlink:href="#DejaVuSans-35" x="138.671875"/>
      <use xlink:href="#DejaVuSans-39" x="202.294922"/>
      <use xlink:href="#DejaVuSans-20" x="265.917969"/>
      <use xlink:href="#DejaVuSans-4e" x="297.705078"/>
      <use xlink:href="#DejaVuSans-75" x="372.509766"/>
      <use xlink:href="#DejaVuSans-6d" x="435.888672"/>
      <use xlink:href="#DejaVuSans-62" x="533.300781"/>
      <use xlink:href="#DejaVuSans-65" x="596.777344"/>
      <use xlink:href="#DejaVuSans-72" x="658.300781"/>
      <use xlink:href="#DejaVuSans-20" x="699.414062"/>
      <use xlink:href="#DejaVuSans-46" x="731.201172"/>
      <use xlink:href="#DejaVuSans-72" x="781.470703"/>
      <use xlink:href="#DejaVuSans-61" x="822.583984"/>
      <use xlink:href="#DejaVuSans-63" x="883.863281"/>
      <use xlink:href="#DejaVuSans-74" x="938.84375"/>
      <use xlink:href="#DejaVuSans-69" x="978.052734"/>
      <use xlink:href="#DejaVuSans-6f" x="1005.835938"/>
      <use xlink:href="#DejaVuSans-6e" x="1067.017578"/>
      <use xlink:href="#DejaVuSans-20" x="1130.396484"/>
      <use xlink:href="#DejaVuSans-5b" x="1162.183594"/>
      <use xlink:href="#DejaVuSans-2d" x="1201.197266"/>
      <use xlink:href="#DejaVuSans-5d" x="1237.28125"/>
     </g>
    </g>
   </g>
   <g id="patch_3">
    <path d="M 51.378125 273.312 
L 51.378125 7.2 
" style="fill: none; stroke: #000000; stroke-width: 0.8; stroke-linejoin: miter; stroke-linecap: square"/>
   </g>
   <g id="patch_4">
    <path d="M 408.498125 273.312 
L 408.498125 7.2 
" style="fill: none; stroke: #000000; stroke-width: 0.8; stroke-linejoin: miter; stroke-linecap: square"/>
   </g>
   <g id="patch_5">
    <path d="M 51.378125 273.312 
L 408.498125 273.312 
" style="fill: none; stroke: #000000; stroke-width: 0.8; stroke-linejoin: miter; stroke-linecap: square"/>
   </g>
   <g id="patch_6">
    <path d="M 51.378125 7.2 
L 408.498125 7.2 
" style="fill: none; stroke: #000000; stroke-width: 0.8; stroke-linejoin: miter; stroke-linecap: square"/>
   </g>
  </g>
  <g id="axes_2">
   <g id="matplotlib.axis_3">
    <g id="ytick_29">
     <g id="line2d_79">
      <defs>
       <path id="mf52c4b9a55" d="M 0 0 
L 3.5 0 
" style="stroke: #000000; stroke-width: 0.8"/>
      </defs>
      <g>
       <use xlink:href="#mf52c4b9a55" x="408.498125" y="220.009864" style="stroke: #000000; stroke-width: 0.8"/>
      </g>
     </g>
     <g id="text_12">
      <!-- $\mathdefault{10^{-4}}$ -->
      <g transform="translate(415.498125 223.809083)scale(0.1 -0.1)">
       <use xlink:href="#DejaVuSans-31" transform="translate(0 0.684375)"/>
       <use xlink:href="#DejaVuSans-30" transform="translate(63.623047 0.684375)"/>
       <use xlink:href="#DejaVuSans-2212" transform="translate(128.203125 38.965625)scale(0.7)"/>
       <use xlink:href="#DejaVuSans-34" transform="translate(186.855469 38.965625)scale(0.7)"/>
      </g>
     </g>
    </g>
    <g id="ytick_30">
     <g id="line2d_80">
      <g>
       <use xlink:href="#mf52c4b9a55" x="408.498125" y="138.094196" style="stroke: #000000; stroke-width: 0.8"/>
      </g>
     </g>
     <g id="text_13">
      <!-- $\mathdefault{10^{-3}}$ -->
      <g transform="translate(415.498125 141.893415)scale(0.1 -0.1)">
       <use xlink:href="#DejaVuSans-31" transform="translate(0 0.765625)"/>
       <use xlink:href="#DejaVuSans-30" transform="translate(63.623047 0.765625)"/>
       <use xlink:href="#DejaVuSans-2212" transform="translate(128.203125 39.046875)scale(0.7)"/>
       <use xlink:href="#DejaVuSans-33" transform="translate(186.855469 39.046875)scale(0.7)"/>
      </g>
     </g>
    </g>
    <g id="ytick_31">
     <g id="line2d_81">
      <g>
       <use xlink:href="#mf52c4b9a55" x="408.498125" y="56.178528" style="stroke: #000000; stroke-width: 0.8"/>
      </g>
     </g>
     <g id="text_14">
      <!-- $\mathdefault{10^{-2}}$ -->
      <g transform="translate(415.498125 59.977747)scale(0.1 -0.1)">
       <use xlink:href="#DejaVuSans-31" transform="translate(0 0.765625)"/>
       <use xlink:href="#DejaVuSans-30" transform="translate(63.623047 0.765625)"/>
       <use xlink:href="#DejaVuSans-2212" transform="translate(128.203125 39.046875)scale(0.7)"/>
       <use xlink:href="#DejaVuSans-32" transform="translate(186.855469 39.046875)scale(0.7)"/>
      </g>
     </g>
    </g>
    <g id="ytick_32">
     <g id="line2d_82">
      <defs>
       <path id="m4cf1057f8d" d="M 0 0 
L 2 0 
" style="stroke: #000000; stroke-width: 0.6"/>
      </defs>
      <g>
       <use xlink:href="#m4cf1057f8d" x="408.498125" y="262.841825" style="stroke: #000000; stroke-width: 0.6"/>
      </g>
     </g>
    </g>
    <g id="ytick_33">
     <g id="line2d_83">
      <g>
       <use xlink:href="#m4cf1057f8d" x="408.498125" y="252.607385" style="stroke: #000000; stroke-width: 0.6"/>
      </g>
     </g>
    </g>
    <g id="ytick_34">
     <g id="line2d_84">
      <g>
       <use xlink:href="#m4cf1057f8d" x="408.498125" y="244.668937" style="stroke: #000000; stroke-width: 0.6"/>
      </g>
     </g>
    </g>
    <g id="ytick_35">
     <g id="line2d_85">
      <g>
       <use xlink:href="#m4cf1057f8d" x="408.498125" y="238.182752" style="stroke: #000000; stroke-width: 0.6"/>
      </g>
     </g>
    </g>
    <g id="ytick_36">
     <g id="line2d_86">
      <g>
       <use xlink:href="#m4cf1057f8d" x="408.498125" y="232.698761" style="stroke: #000000; stroke-width: 0.6"/>
      </g>
     </g>
    </g>
    <g id="ytick_37">
     <g id="line2d_87">
      <g>
       <use xlink:href="#m4cf1057f8d" x="408.498125" y="227.948312" style="stroke: #000000; stroke-width: 0.6"/>
      </g>
     </g>
    </g>
    <g id="ytick_38">
     <g id="line2d_88">
      <g>
       <use xlink:href="#m4cf1057f8d" x="408.498125" y="223.758119" style="stroke: #000000; stroke-width: 0.6"/>
      </g>
     </g>
    </g>
    <g id="ytick_39">
     <g id="line2d_89">
      <g>
       <use xlink:href="#m4cf1057f8d" x="408.498125" y="195.350791" style="stroke: #000000; stroke-width: 0.6"/>
      </g>
     </g>
    </g>
    <g id="ytick_40">
     <g id="line2d_90">
      <g>
       <use xlink:href="#m4cf1057f8d" x="408.498125" y="180.926157" style="stroke: #000000; stroke-width: 0.6"/>
      </g>
     </g>
    </g>
    <g id="ytick_41">
     <g id="line2d_91">
      <g>
       <use xlink:href="#m4cf1057f8d" x="408.498125" y="170.691717" style="stroke: #000000; stroke-width: 0.6"/>
      </g>
     </g>
    </g>
    <g id="ytick_42">
     <g id="line2d_92">
      <g>
       <use xlink:href="#m4cf1057f8d" x="408.498125" y="162.753269" style="stroke: #000000; stroke-width: 0.6"/>
      </g>
     </g>
    </g>
    <g id="ytick_43">
     <g id="line2d_93">
      <g>
       <use xlink:href="#m4cf1057f8d" x="408.498125" y="156.267084" style="stroke: #000000; stroke-width: 0.6"/>
      </g>
     </g>
    </g>
    <g id="ytick_44">
     <g id="line2d_94">
      <g>
       <use xlink:href="#m4cf1057f8d" x="408.498125" y="150.783093" style="stroke: #000000; stroke-width: 0.6"/>
      </g>
     </g>
    </g>
    <g id="ytick_45">
     <g id="line2d_95">
      <g>
       <use xlink:href="#m4cf1057f8d" x="408.498125" y="146.032644" style="stroke: #000000; stroke-width: 0.6"/>
      </g>
     </g>
    </g>
    <g id="ytick_46">
     <g id="line2d_96">
      <g>
       <use xlink:href="#m4cf1057f8d" x="408.498125" y="141.842451" style="stroke: #000000; stroke-width: 0.6"/>
      </g>
     </g>
    </g>
    <g id="ytick_47">
     <g id="line2d_97">
      <g>
       <use xlink:href="#m4cf1057f8d" x="408.498125" y="113.435123" style="stroke: #000000; stroke-width: 0.6"/>
      </g>
     </g>
    </g>
    <g id="ytick_48">
     <g id="line2d_98">
      <g>
       <use xlink:href="#m4cf1057f8d" x="408.498125" y="99.010489" style="stroke: #000000; stroke-width: 0.6"/>
      </g>
     </g>
    </g>
    <g id="ytick_49">
     <g id="line2d_99">
      <g>
       <use xlink:href="#m4cf1057f8d" x="408.498125" y="88.776049" style="stroke: #000000; stroke-width: 0.6"/>
      </g>
     </g>
    </g>
    <g id="ytick_50">
     <g id="line2d_100">
      <g>
       <use xlink:href="#m4cf1057f8d" x="408.498125" y="80.837601" style="stroke: #000000; stroke-width: 0.6"/>
      </g>
     </g>
    </g>
    <g id="ytick_51">
     <g id="line2d_101">
      <g>
       <use xlink:href="#m4cf1057f8d" x="408.498125" y="74.351416" style="stroke: #000000; stroke-width: 0.6"/>
      </g>
     </g>
    </g>
    <g id="ytick_52">
     <g id="line2d_102">
      <g>
       <use xlink:href="#m4cf1057f8d" x="408.498125" y="68.867425" style="stroke: #000000; stroke-width: 0.6"/>
      </g>
     </g>
    </g>
    <g id="ytick_53">
     <g id="line2d_103">
      <g>
       <use xlink:href="#m4cf1057f8d" x="408.498125" y="64.116976" style="stroke: #000000; stroke-width: 0.6"/>
      </g>
     </g>
    </g>
    <g id="ytick_54">
     <g id="line2d_104">
      <g>
       <use xlink:href="#m4cf1057f8d" x="408.498125" y="59.926783" style="stroke: #000000; stroke-width: 0.6"/>
      </g>
     </g>
    </g>
    <g id="ytick_55">
     <g id="line2d_105">
      <g>
       <use xlink:href="#m4cf1057f8d" x="408.498125" y="31.519455" style="stroke: #000000; stroke-width: 0.6"/>
      </g>
     </g>
    </g>
    <g id="ytick_56">
     <g id="line2d_106">
      <g>
       <use xlink:href="#m4cf1057f8d" x="408.498125" y="17.094821" style="stroke: #000000; stroke-width: 0.6"/>
      </g>
     </g>
    </g>
    <g id="text_15">
     <!-- Absolute Relative Difference [-] -->
     <g transform="translate(450.596563 218.595844)rotate(-90)scale(0.1 -0.1)">
      <defs>
       <path id="DejaVuSans-41" d="M 2188 4044 
L 1331 1722 
L 3047 1722 
L 2188 4044 
z
M 1831 4666 
L 2547 4666 
L 4325 0 
L 3669 0 
L 3244 1197 
L 1141 1197 
L 716 0 
L 50 0 
L 1831 4666 
z
" transform="scale(0.015625)"/>
       <path id="DejaVuSans-73" d="M 2834 3397 
L 2834 2853 
Q 2591 2978 2328 3040 
Q 2066 3103 1784 3103 
Q 1356 3103 1142 2972 
Q 928 2841 928 2578 
Q 928 2378 1081 2264 
Q 1234 2150 1697 2047 
L 1894 2003 
Q 2506 1872 2764 1633 
Q 3022 1394 3022 966 
Q 3022 478 2636 193 
Q 2250 -91 1575 -91 
Q 1294 -91 989 -36 
Q 684 19 347 128 
L 347 722 
Q 666 556 975 473 
Q 1284 391 1588 391 
Q 1994 391 2212 530 
Q 2431 669 2431 922 
Q 2431 1156 2273 1281 
Q 2116 1406 1581 1522 
L 1381 1569 
Q 847 1681 609 1914 
Q 372 2147 372 2553 
Q 372 3047 722 3315 
Q 1072 3584 1716 3584 
Q 2034 3584 2315 3537 
Q 2597 3491 2834 3397 
z
" transform="scale(0.015625)"/>
       <path id="DejaVuSans-52" d="M 2841 2188 
Q 3044 2119 3236 1894 
Q 3428 1669 3622 1275 
L 4263 0 
L 3584 0 
L 2988 1197 
Q 2756 1666 2539 1819 
Q 2322 1972 1947 1972 
L 1259 1972 
L 1259 0 
L 628 0 
L 628 4666 
L 2053 4666 
Q 2853 4666 3247 4331 
Q 3641 3997 3641 3322 
Q 3641 2881 3436 2590 
Q 3231 2300 2841 2188 
z
M 1259 4147 
L 1259 2491 
L 2053 2491 
Q 2509 2491 2742 2702 
Q 2975 2913 2975 3322 
Q 2975 3731 2742 3939 
Q 2509 4147 2053 4147 
L 1259 4147 
z
" transform="scale(0.015625)"/>
       <path id="DejaVuSans-76" d="M 191 3500 
L 800 3500 
L 1894 563 
L 2988 3500 
L 3597 3500 
L 2284 0 
L 1503 0 
L 191 3500 
z
" transform="scale(0.015625)"/>
       <path id="DejaVuSans-44" d="M 1259 4147 
L 1259 519 
L 2022 519 
Q 2988 519 3436 956 
Q 3884 1394 3884 2338 
Q 3884 3275 3436 3711 
Q 2988 4147 2022 4147 
L 1259 4147 
z
M 628 4666 
L 1925 4666 
Q 3281 4666 3915 4102 
Q 4550 3538 4550 2338 
Q 4550 1131 3912 565 
Q 3275 0 1925 0 
L 628 0 
L 628 4666 
z
" transform="scale(0.015625)"/>
       <path id="DejaVuSans-66" d="M 2375 4863 
L 2375 4384 
L 1825 4384 
Q 1516 4384 1395 4259 
Q 1275 4134 1275 3809 
L 1275 3500 
L 2222 3500 
L 2222 3053 
L 1275 3053 
L 1275 0 
L 697 0 
L 697 3053 
L 147 3053 
L 147 3500 
L 697 3500 
L 697 3744 
Q 697 4328 969 4595 
Q 1241 4863 1831 4863 
L 2375 4863 
z
" transform="scale(0.015625)"/>
      </defs>
      <use xlink:href="#DejaVuSans-41"/>
      <use xlink:href="#DejaVuSans-62" x="68.408203"/>
      <use xlink:href="#DejaVuSans-73" x="131.884766"/>
      <use xlink:href="#DejaVuSans-6f" x="183.984375"/>
      <use xlink:href="#DejaVuSans-6c" x="245.166016"/>
      <use xlink:href="#DejaVuSans-75" x="272.949219"/>
      <use xlink:href="#DejaVuSans-74" x="336.328125"/>
      <use xlink:href="#DejaVuSans-65" x="375.537109"/>
      <use xlink:href="#DejaVuSans-20" x="437.060547"/>
      <use xlink:href="#DejaVuSans-52" x="468.847656"/>
      <use xlink:href="#DejaVuSans-65" x="533.830078"/>
      <use xlink:href="#DejaVuSans-6c" x="595.353516"/>
      <use xlink:href="#DejaVuSans-61" x="623.136719"/>
      <use xlink:href="#DejaVuSans-74" x="684.416016"/>
      <use xlink:href="#DejaVuSans-69" x="723.625"/>
      <use xlink:href="#DejaVuSans-76" x="751.408203"/>
      <use xlink:href="#DejaVuSans-65" x="810.587891"/>
      <use xlink:href="#DejaVuSans-20" x="872.111328"/>
      <use xlink:href="#DejaVuSans-44" x="903.898438"/>
      <use xlink:href="#DejaVuSans-69" x="980.900391"/>
      <use xlink:href="#DejaVuSans-66" x="1008.683594"/>
      <use xlink:href="#DejaVuSans-66" x="1043.888672"/>
      <use xlink:href="#DejaVuSans-65" x="1079.09375"/>
      <use xlink:href="#DejaVuSans-72" x="1140.617188"/>
      <use xlink:href="#DejaVuSans-65" x="1179.480469"/>
      <use xlink:href="#DejaVuSans-6e" x="1241.003906"/>
      <use xlink:href="#DejaVuSans-63" x="1304.382812"/>
      <use xlink:href="#DejaVuSans-65" x="1359.363281"/>
      <use xlink:href="#DejaVuSans-20" x="1420.886719"/>
      <use xlink:href="#DejaVuSans-5b" x="1452.673828"/>
      <use xlink:href="#DejaVuSans-2d" x="1491.6875"/>
      <use xlink:href="#DejaVuSans-5d" x="1527.771484"/>
     </g>
    </g>
   </g>
   <g id="line2d_107">
    <path d="M 67.610852 261.216 
L 112.99561 204.02811 
L 132.541761 179.454867 
L 177.926519 122.882873 
L 197.47267 99.074458 
L 242.857428 48.419749 
L 262.40358 31.50961 
L 307.788337 19.296 
L 327.334489 27.031119 
L 372.719246 92.484386 
L 392.265398 174.308088 
" clip-path="url(#p99d1e2793b)" style="fill: none; stroke: #000000; stroke-width: 1.5; stroke-linecap: square"/>
   </g>
   <g id="line2d_108">
    <path d="M 67.610852 59.857348 
L 112.99561 60.600926 
L 132.541761 60.697066 
L 177.926519 62.976686 
L 197.47267 74.072468 
L 242.857428 28.24758 
L 262.40358 25.582832 
L 307.788337 27.057233 
L 327.334489 24.678918 
L 372.719246 37.731882 
L 392.265398 110.237481 
" clip-path="url(#p99d1e2793b)" style="fill: none; stroke-dasharray: 5.55,2.4; stroke-dashoffset: 0; stroke: #000000; stroke-width: 1.5"/>
   </g>
   <g id="text_16">
    <path d="M 75.952286 243.42934 
L 76.777898 242.389013 
L 83.564473 243.64775 
L 78.787535 239.856734 
L 79.381975 239.107698 
L 85.09276 243.639822 
L 84.267149 244.680149 
L 77.481545 243.420189 
L 82.258483 247.211205 
L 81.663071 247.961464 
L 75.952286 243.42934 
z
M 82.005226 238.732993 
L 82.563728 238.029242 
L 86.847429 241.42882 
L 86.288926 242.132571 
L 82.005226 238.732993 
z
M 80.33703 237.4091 
L 80.895532 236.705349 
L 81.787766 237.413433 
L 81.229264 238.117183 
L 80.33703 237.4091 
z
M 85.27551 238.359875 
L 86.911193 236.298803 
L 87.537837 236.796113 
L 85.902154 238.857185 
L 85.27551 238.359875 
z
M 84.633839 232.489992 
L 87.04074 229.457132 
L 87.691863 229.973868 
L 85.846377 232.299306 
L 87.245311 233.409511 
Q 87.320857 233.196183 87.425776 233.006167 
Q 87.531666 232.814927 87.665707 232.646026 
Q 88.424299 231.690149 89.39105 231.547764 
Q 90.358774 231.404155 91.253455 232.114181 
Q 92.175063 232.845576 92.231116 233.825599 
Q 92.285944 234.80465 91.457419 235.848649 
Q 91.171854 236.20848 90.814409 236.533209 
Q 90.457936 236.856713 90.019869 237.157355 
L 89.242684 236.540574 
Q 89.70288 236.345264 90.086066 236.050938 
Q 90.469252 235.756612 90.793669 235.347824 
Q 91.319147 234.685687 91.277517 234.024302 
Q 91.236859 233.361694 90.639588 232.887695 
Q 90.043542 232.414668 89.389017 232.525574 
Q 88.734239 232.634284 88.208762 233.296422 
Q 87.963021 233.606072 87.78679 233.968892 
Q 87.611531 234.330487 87.502694 234.766739 
L 84.633839 232.489992 
z
M 94.192605 231.929585 
L 93.488854 231.371083 
Q 93.858328 231.189549 94.166567 230.949445 
Q 94.475777 230.708117 94.704034 230.420498 
Q 95.311102 229.655551 95.116618 228.844934 
Q 94.923106 228.033092 93.919862 227.143157 
Q 94.073289 227.625968 93.978537 228.107308 
Q 93.884757 228.587425 93.557427 228.999884 
Q 92.877511 229.856624 91.963501 229.945118 
Q 91.048268 230.032641 90.148691 229.318729 
Q 89.26992 228.62133 89.151547 227.679618 
Q 89.03195 226.736936 89.717694 225.872852 
Q 90.504453 224.881481 91.678282 224.963276 
Q 92.851857 225.042876 94.2973 226.189991 
Q 95.647278 227.261343 95.943648 228.541795 
Q 96.24099 229.821023 95.382353 230.902964 
Q 95.151182 231.194256 94.856659 231.447239 
Q 94.563107 231.698999 94.192605 231.929585 
z
M 92.991665 228.471101 
Q 93.404471 227.950938 93.29042 227.365727 
Q 93.176117 226.778322 92.555592 226.285869 
Q 91.939963 225.797301 91.340724 225.818434 
Q 90.742457 225.838342 90.329651 226.358506 
Q 89.916845 226.87867 90.033344 227.465823 
Q 90.149842 228.052975 90.765471 228.541543 
Q 91.385996 229.033997 91.98304 229.013116 
Q 92.578859 228.991265 92.991665 228.471101 
z
" clip-path="url(#p99d1e2793b)" style="stroke: #ffffff; stroke-width: 5"/>
    <path d="M 75.952286 243.42934 
L 76.777898 242.389013 
L 83.564473 243.64775 
L 78.787535 239.856734 
L 79.381975 239.107698 
L 85.09276 243.639822 
L 84.267149 244.680149 
L 77.481545 243.420189 
L 82.258483 247.211205 
L 81.663071 247.961464 
L 75.952286 243.42934 
z
M 82.005226 238.732993 
L 82.563728 238.029242 
L 86.847429 241.42882 
L 86.288926 242.132571 
L 82.005226 238.732993 
z
M 80.33703 237.4091 
L 80.895532 236.705349 
L 81.787766 237.413433 
L 81.229264 238.117183 
L 80.33703 237.4091 
z
M 85.27551 238.359875 
L 86.911193 236.298803 
L 87.537837 236.796113 
L 85.902154 238.857185 
L 85.27551 238.359875 
z
M 84.633839 232.489992 
L 87.04074 229.457132 
L 87.691863 229.973868 
L 85.846377 232.299306 
L 87.245311 233.409511 
Q 87.320857 233.196183 87.425776 233.006167 
Q 87.531666 232.814927 87.665707 232.646026 
Q 88.424299 231.690149 89.39105 231.547764 
Q 90.358774 231.404155 91.253455 232.114181 
Q 92.175063 232.845576 92.231116 233.825599 
Q 92.285944 234.80465 91.457419 235.848649 
Q 91.171854 236.20848 90.814409 236.533209 
Q 90.457936 236.856713 90.019869 237.157355 
L 89.242684 236.540574 
Q 89.70288 236.345264 90.086066 236.050938 
Q 90.469252 235.756612 90.793669 235.347824 
Q 91.319147 234.685687 91.277517 234.024302 
Q 91.236859 233.361694 90.639588 232.887695 
Q 90.043542 232.414668 89.389017 232.525574 
Q 88.734239 232.634284 88.208762 233.296422 
Q 87.963021 233.606072 87.78679 233.968892 
Q 87.611531 234.330487 87.502694 234.766739 
L 84.633839 232.489992 
z
M 94.192605 231.929585 
L 93.488854 231.371083 
Q 93.858328 231.189549 94.166567 230.949445 
Q 94.475777 230.708117 94.704034 230.420498 
Q 95.311102 229.655551 95.116618 228.844934 
Q 94.923106 228.033092 93.919862 227.143157 
Q 94.073289 227.625968 93.978537 228.107308 
Q 93.884757 228.587425 93.557427 228.999884 
Q 92.877511 229.856624 91.963501 229.945118 
Q 91.048268 230.032641 90.148691 229.318729 
Q 89.26992 228.62133 89.151547 227.679618 
Q 89.03195 226.736936 89.717694 225.872852 
Q 90.504453 224.881481 91.678282 224.963276 
Q 92.851857 225.042876 94.2973 226.189991 
Q 95.647278 227.261343 95.943648 228.541795 
Q 96.24099 229.821023 95.382353 230.902964 
Q 95.151182 231.194256 94.856659 231.447239 
Q 94.563107 231.698999 94.192605 231.929585 
z
M 92.991665 228.471101 
Q 93.404471 227.950938 93.29042 227.365727 
Q 93.176117 226.778322 92.555592 226.285869 
Q 91.939963 225.797301 91.340724 225.818434 
Q 90.742457 225.838342 90.329651 226.358506 
Q 89.916845 226.87867 90.033344 227.465823 
Q 90.149842 228.052975 90.765471 228.541543 
Q 91.385996 229.033997 91.98304 229.013116 
Q 92.578859 228.991265 92.991665 228.471101 
z
" clip-path="url(#p99d1e2793b)"/>
   </g>
   <g id="text_17">
    <path d="M 68.872754 48.861509 
L 68.779891 54.529499 
L 69.971918 54.549029 
Q 71.481091 54.573755 72.192182 53.902501 
Q 72.9033 53.229685 72.927463 51.754883 
Q 72.951446 50.291017 72.2627 49.598391 
Q 71.573954 48.905765 70.064782 48.881039 
L 68.872754 48.861509 
z
M 67.900234 48.034529 
L 69.926524 48.067728 
Q 72.04499 48.102436 73.021046 48.999796 
Q 73.998664 49.897182 73.967948 51.77193 
Q 73.937053 53.657614 72.925824 54.52554 
Q 71.916183 55.391929 69.807092 55.357374 
L 67.780801 55.324176 
L 67.900234 48.034529 
z
M 76.571916 48.987651 
L 76.527046 51.726346 
L 77.767504 51.74667 
Q 78.456474 51.757958 78.83726 51.407899 
Q 79.219608 51.057865 79.23041 50.398579 
Q 79.241135 49.743979 78.870459 49.381608 
Q 78.501345 49.019263 77.812375 49.007975 
L 76.571916 48.987651 
z
M 75.599396 48.160671 
L 77.825659 48.197146 
Q 79.052057 48.217239 79.669449 48.782116 
Q 80.288403 49.347019 80.270895 50.415626 
Q 80.253208 51.495169 79.616132 52.036367 
Q 78.980618 52.577592 77.75422 52.557498 
L 76.513761 52.537175 
L 76.465768 55.466469 
L 75.479963 55.450318 
L 75.599396 48.160671 
z
M 83.412697 49.260689 
L 82.01438 52.866391 
L 84.69527 52.910314 
L 83.412697 49.260689 
z
M 82.870881 48.279806 
L 83.989481 48.298133 
L 86.6478 55.63329 
L 85.622938 55.616499 
L 84.989603 53.735559 
L 81.704107 53.68173 
L 81.009494 55.540913 
L 79.969009 55.523866 
L 82.870881 48.279806 
z
M 91.982153 49.240131 
L 91.889289 54.90812 
L 93.081317 54.92765 
Q 94.590489 54.952376 95.301581 54.281122 
Q 96.012698 53.608306 96.036861 52.133504 
Q 96.060845 50.669638 95.372099 49.977013 
Q 94.683353 49.284387 93.17418 49.259661 
L 91.982153 49.240131 
z
M 91.009632 48.413151 
L 93.035923 48.446349 
Q 95.154388 48.481058 96.130444 49.378418 
Q 97.108062 50.275803 97.077347 52.150552 
Q 97.046452 54.036236 96.035223 54.904162 
Q 95.025582 55.770551 92.91649 55.735996 
L 90.8902 55.702797 
L 91.009632 48.413151 
z
M 98.639892 50.360283 
L 99.538209 50.375001 
L 99.448621 55.843017 
L 98.550304 55.8283 
L 98.639892 50.360283 
z
M 98.674779 48.230882 
L 99.573096 48.2456 
L 99.554437 49.384509 
L 98.65612 49.369791 
L 98.674779 48.230882 
z
M 104.221105 48.321752 
L 104.208845 49.070089 
L 103.349585 49.056011 
Q 102.866837 49.048102 102.674601 49.240291 
Q 102.483926 49.432506 102.475607 49.94025 
L 102.467698 50.422998 
L 103.947187 50.447237 
L 103.935746 51.145581 
L 102.456257 51.121341 
L 102.378111 55.891014 
L 101.475107 55.876219 
L 101.553253 51.106547 
L 100.693993 51.092469 
L 100.705435 50.394125 
L 101.564694 50.408203 
L 101.57094 50.027004 
Q 101.585888 49.114627 102.017665 48.704457 
Q 102.449468 48.292726 103.371219 48.307828 
L 104.221105 48.321752 
z
M 107.741141 48.379424 
L 107.72888 49.127761 
L 106.86962 49.113683 
Q 106.386873 49.105774 106.194636 49.297963 
Q 106.003962 49.490177 105.995643 49.997922 
L 105.987734 50.48067 
L 107.467223 50.504909 
L 107.455781 51.203253 
L 105.976292 51.179013 
L 105.898146 55.948686 
L 104.995142 55.933891 
L 105.073288 51.164219 
L 104.214029 51.150141 
L 104.22547 50.451797 
L 105.08473 50.465875 
L 105.090975 50.084676 
Q 105.105924 49.172298 105.537701 48.762129 
Q 105.969504 48.350398 106.891255 48.365499 
L 107.741141 48.379424 
z
" clip-path="url(#p99d1e2793b)" style="stroke: #ffffff; stroke-width: 5"/>
    <path d="M 68.872754 48.861509 
L 68.779891 54.529499 
L 69.971918 54.549029 
Q 71.481091 54.573755 72.192182 53.902501 
Q 72.9033 53.229685 72.927463 51.754883 
Q 72.951446 50.291017 72.2627 49.598391 
Q 71.573954 48.905765 70.064782 48.881039 
L 68.872754 48.861509 
z
M 67.900234 48.034529 
L 69.926524 48.067728 
Q 72.04499 48.102436 73.021046 48.999796 
Q 73.998664 49.897182 73.967948 51.77193 
Q 73.937053 53.657614 72.925824 54.52554 
Q 71.916183 55.391929 69.807092 55.357374 
L 67.780801 55.324176 
L 67.900234 48.034529 
z
M 76.571916 48.987651 
L 76.527046 51.726346 
L 77.767504 51.74667 
Q 78.456474 51.757958 78.83726 51.407899 
Q 79.219608 51.057865 79.23041 50.398579 
Q 79.241135 49.743979 78.870459 49.381608 
Q 78.501345 49.019263 77.812375 49.007975 
L 76.571916 48.987651 
z
M 75.599396 48.160671 
L 77.825659 48.197146 
Q 79.052057 48.217239 79.669449 48.782116 
Q 80.288403 49.347019 80.270895 50.415626 
Q 80.253208 51.495169 79.616132 52.036367 
Q 78.980618 52.577592 77.75422 52.557498 
L 76.513761 52.537175 
L 76.465768 55.466469 
L 75.479963 55.450318 
L 75.599396 48.160671 
z
M 83.412697 49.260689 
L 82.01438 52.866391 
L 84.69527 52.910314 
L 83.412697 49.260689 
z
M 82.870881 48.279806 
L 83.989481 48.298133 
L 86.6478 55.63329 
L 85.622938 55.616499 
L 84.989603 53.735559 
L 81.704107 53.68173 
L 81.009494 55.540913 
L 79.969009 55.523866 
L 82.870881 48.279806 
z
M 91.982153 49.240131 
L 91.889289 54.90812 
L 93.081317 54.92765 
Q 94.590489 54.952376 95.301581 54.281122 
Q 96.012698 53.608306 96.036861 52.133504 
Q 96.060845 50.669638 95.372099 49.977013 
Q 94.683353 49.284387 93.17418 49.259661 
L 91.982153 49.240131 
z
M 91.009632 48.413151 
L 93.035923 48.446349 
Q 95.154388 48.481058 96.130444 49.378418 
Q 97.108062 50.275803 97.077347 52.150552 
Q 97.046452 54.036236 96.035223 54.904162 
Q 95.025582 55.770551 92.91649 55.735996 
L 90.8902 55.702797 
L 91.009632 48.413151 
z
M 98.639892 50.360283 
L 99.538209 50.375001 
L 99.448621 55.843017 
L 98.550304 55.8283 
L 98.639892 50.360283 
z
M 98.674779 48.230882 
L 99.573096 48.2456 
L 99.554437 49.384509 
L 98.65612 49.369791 
L 98.674779 48.230882 
z
M 104.221105 48.321752 
L 104.208845 49.070089 
L 103.349585 49.056011 
Q 102.866837 49.048102 102.674601 49.240291 
Q 102.483926 49.432506 102.475607 49.94025 
L 102.467698 50.422998 
L 103.947187 50.447237 
L 103.935746 51.145581 
L 102.456257 51.121341 
L 102.378111 55.891014 
L 101.475107 55.876219 
L 101.553253 51.106547 
L 100.693993 51.092469 
L 100.705435 50.394125 
L 101.564694 50.408203 
L 101.57094 50.027004 
Q 101.585888 49.114627 102.017665 48.704457 
Q 102.449468 48.292726 103.371219 48.307828 
L 104.221105 48.321752 
z
M 107.741141 48.379424 
L 107.72888 49.127761 
L 106.86962 49.113683 
Q 106.386873 49.105774 106.194636 49.297963 
Q 106.003962 49.490177 105.995643 49.997922 
L 105.987734 50.48067 
L 107.467223 50.504909 
L 107.455781 51.203253 
L 105.976292 51.179013 
L 105.898146 55.948686 
L 104.995142 55.933891 
L 105.073288 51.164219 
L 104.214029 51.150141 
L 104.22547 50.451797 
L 105.08473 50.465875 
L 105.090975 50.084676 
Q 105.105924 49.172298 105.537701 48.762129 
Q 105.969504 48.350398 106.891255 48.365499 
L 107.741141 48.379424 
z
" clip-path="url(#p99d1e2793b)"/>
   </g>
   <g id="patch_7">
    <path d="M 51.378125 273.312 
L 51.378125 7.2 
" style="fill: none; stroke: #000000; stroke-width: 0.8; stroke-linejoin: miter; stroke-linecap: square"/>
   </g>
   <g id="patch_8">
    <path d="M 408.498125 273.312 
L 408.498125 7.2 
" style="fill: none; stroke: #000000; stroke-width: 0.8; stroke-linejoin: miter; stroke-linecap: square"/>
   </g>
   <g id="patch_9">
    <path d="M 51.378125 273.312 
L 408.498125 273.312 
" style="fill: none; stroke: #000000; stroke-width: 0.8; stroke-linejoin: miter; stroke-linecap: square"/>
   </g>
   <g id="patch_10">
    <path d="M 51.378125 7.2 
L 408.498125 7.2 
" style="fill: none; stroke: #000000; stroke-width: 0.8; stroke-linejoin: miter; stroke-linecap: square"/>
   </g>
  </g>
 </g>
 <defs>
  <clipPath id="p99d1e2793b">
   <rect x="51.378125" y="7.2" width="357.12" height="266.112"/>
  </clipPath>
 </defs>
</svg>
