<?xml version="1.0" encoding="utf-8" standalone="no"?>
<!DOCTYPE svg PUBLIC "-//W3C//DTD SVG 1.1//EN"
  "http://www.w3.org/Graphics/SVG/1.1/DTD/svg11.dtd">
<svg xmlns:xlink="http://www.w3.org/1999/xlink" width="415.698125pt" height="310.86825pt" viewBox="0 0 415.698125 310.86825" xmlns="http://www.w3.org/2000/svg" version="1.1">
 <metadata>
  <rdf:RDF xmlns:dc="http://purl.org/dc/elements/1.1/" xmlns:cc="http://creativecommons.org/ns#" xmlns:rdf="http://www.w3.org/1999/02/22-rdf-syntax-ns#">
   <cc:Work>
    <dc:type rdf:resource="http://purl.org/dc/dcmitype/StillImage"/>
    <dc:date>2022-08-02T15:27:27.377389</dc:date>
    <dc:format>image/svg+xml</dc:format>
    <dc:creator>
     <cc:Agent>
      <dc:title>Matplotlib v3.5.2, https://matplotlib.org/</dc:title>
     </cc:Agent>
    </dc:creator>
   </cc:Work>
  </rdf:RDF>
 </metadata>
 <defs>
  <style type="text/css">*{stroke-linejoin: round; stroke-linecap: butt}</style>
 </defs>
 <g id="figure_1">
  <g id="patch_1">
   <path d="M 0 310.86825 
L 415.698125 310.86825 
L 415.698125 0 
L 0 0 
z
" style="fill: #ffffff"/>
  </g>
  <g id="axes_1">
   <g id="patch_2">
    <path d="M 51.378125 273.312 
L 408.498125 273.312 
L 408.498125 7.2 
L 51.378125 7.2 
z
" style="fill: #ffffff"/>
   </g>
   <g id="PathCollection_1">
    <defs>
     <path id="m1ed4a11ca8" d="M -0 2.828427 
L 2.828427 0 
L 0 -2.828427 
L -2.828427 -0 
z
" style="stroke: #000000"/>
    </defs>
    <g clip-path="url(#p5fced9d21d)">
     <use xlink:href="#m1ed4a11ca8" x="67.610852" y="22.730561" style="stroke: #000000"/>
     <use xlink:href="#m1ed4a11ca8" x="112.99561" y="22.732784" style="stroke: #000000"/>
     <use xlink:href="#m1ed4a11ca8" x="132.541761" y="22.735562" style="stroke: #000000"/>
     <use xlink:href="#m1ed4a11ca8" x="177.926519" y="22.757789" style="stroke: #000000"/>
     <use xlink:href="#m1ed4a11ca8" x="197.47267" y="22.785573" style="stroke: #000000"/>
     <use xlink:href="#m1ed4a11ca8" x="242.857428" y="23.007845" style="stroke: #000000"/>
     <use xlink:href="#m1ed4a11ca8" x="262.40358" y="23.285684" style="stroke: #000000"/>
     <use xlink:href="#m1ed4a11ca8" x="307.788337" y="25.5084" style="stroke: #000000"/>
     <use xlink:href="#m1ed4a11ca8" x="327.334489" y="28.286794" style="stroke: #000000"/>
     <use xlink:href="#m1ed4a11ca8" x="372.719246" y="50.513948" style="stroke: #000000"/>
     <use xlink:href="#m1ed4a11ca8" x="392.265398" y="78.297891" style="stroke: #000000"/>
    </g>
   </g>
   <g id="PathCollection_2">
    <defs>
     <path id="m52aa698d29" d="M -1 2 
L 0 1 
L 1 2 
L 2 1 
L 1 0 
L 2 -1 
L 1 -2 
L 0 -1 
L -1 -2 
L -2 -1 
L -1 0 
L -2 1 
z
" style="stroke: #000000"/>
    </defs>
    <g clip-path="url(#p5fced9d21d)">
     <use xlink:href="#m52aa698d29" x="67.610852" y="143.376971" style="stroke: #000000"/>
     <use xlink:href="#m52aa698d29" x="112.99561" y="123.95833" style="stroke: #000000"/>
     <use xlink:href="#m52aa698d29" x="132.541761" y="115.614274" style="stroke: #000000"/>
     <use xlink:href="#m52aa698d29" x="177.926519" y="96.404766" style="stroke: #000000"/>
     <use xlink:href="#m52aa698d29" x="197.47267" y="88.320414" style="stroke: #000000"/>
     <use xlink:href="#m52aa698d29" x="242.857428" y="71.120171" style="stroke: #000000"/>
     <use xlink:href="#m52aa698d29" x="262.40358" y="65.378187" style="stroke: #000000"/>
     <use xlink:href="#m52aa698d29" x="307.788337" y="61.230951" style="stroke: #000000"/>
     <use xlink:href="#m52aa698d29" x="327.334489" y="63.857477" style="stroke: #000000"/>
     <use xlink:href="#m52aa698d29" x="372.719246" y="86.082698" style="stroke: #000000"/>
     <use xlink:href="#m52aa698d29" x="392.265398" y="113.866641" style="stroke: #000000"/>
    </g>
   </g>
   <g id="PathCollection_3">
    <defs>
     <path id="m19995511ec" d="M -2 2 
L 2 2 
L 2 -2 
L -2 -2 
z
" style="stroke: #000000"/>
    </defs>
    <g clip-path="url(#p5fced9d21d)">
     <use xlink:href="#m19995511ec" x="67.610852" y="32.002512" style="stroke: #000000"/>
     <use xlink:href="#m19995511ec" x="112.99561" y="32.002501" style="stroke: #000000"/>
     <use xlink:href="#m19995511ec" x="132.541761" y="32.002465" style="stroke: #000000"/>
     <use xlink:href="#m19995511ec" x="177.926519" y="32.001329" style="stroke: #000000"/>
     <use xlink:href="#m19995511ec" x="197.47267" y="31.997852" style="stroke: #000000"/>
     <use xlink:href="#m19995511ec" x="242.857428" y="31.899955" style="stroke: #000000"/>
     <use xlink:href="#m19995511ec" x="262.40358" y="31.651306" style="stroke: #000000"/>
     <use xlink:href="#m19995511ec" x="307.788337" y="28.748596" style="stroke: #000000"/>
     <use xlink:href="#m19995511ec" x="327.334489" y="26.087816" style="stroke: #000000"/>
     <use xlink:href="#m19995511ec" x="372.719246" y="20.074969" style="stroke: #000000"/>
     <use xlink:href="#m19995511ec" x="392.265398" y="19.296" style="stroke: #000000"/>
    </g>
   </g>
   <g id="PathCollection_4">
    <defs>
     <path id="m9e006f2825" d="M 0 2 
C 0.530406 2 1.03916 1.789267 1.414214 1.414214 
C 1.789267 1.03916 2 0.530406 2 0 
C 2 -0.530406 1.789267 -1.03916 1.414214 -1.414214 
C 1.03916 -1.789267 0.530406 -2 0 -2 
C -0.530406 -2 -1.03916 -1.789267 -1.414214 -1.414214 
C -1.789267 -1.03916 -2 -0.530406 -2 0 
C -2 0.530406 -1.789267 1.03916 -1.414214 1.414214 
C -1.03916 1.789267 -0.530406 2 0 2 
z
" style="stroke: #000000"/>
    </defs>
    <g clip-path="url(#p5fced9d21d)">
     <use xlink:href="#m9e006f2825" x="67.610852" y="261.216" style="stroke: #000000"/>
     <use xlink:href="#m9e006f2825" x="112.99561" y="222.347612" style="stroke: #000000"/>
     <use xlink:href="#m9e006f2825" x="132.541761" y="205.62064" style="stroke: #000000"/>
     <use xlink:href="#m9e006f2825" x="177.926519" y="166.891642" style="stroke: #000000"/>
     <use xlink:href="#m9e006f2825" x="197.47267" y="150.337708" style="stroke: #000000"/>
     <use xlink:href="#m9e006f2825" x="242.857428" y="112.946105" style="stroke: #000000"/>
     <use xlink:href="#m9e006f2825" x="262.40358" y="97.951519" style="stroke: #000000"/>
     <use xlink:href="#m9e006f2825" x="307.788337" y="69.571175" style="stroke: #000000"/>
     <use xlink:href="#m9e006f2825" x="327.334489" y="60.938098" style="stroke: #000000"/>
     <use xlink:href="#m9e006f2825" x="372.719246" y="49.0923" style="stroke: #000000"/>
     <use xlink:href="#m9e006f2825" x="392.265398" y="47.873516" style="stroke: #000000"/>
    </g>
   </g>
   <g id="matplotlib.axis_1">
    <g id="xtick_1">
     <g id="line2d_1">
      <defs>
       <path id="m1def306a6f" d="M 0 0 
L 0 3.5 
" style="stroke: #000000; stroke-width: 0.8"/>
      </defs>
      <g>
       <use xlink:href="#m1def306a6f" x="67.610852" y="273.312" style="stroke: #000000; stroke-width: 0.8"/>
      </g>
     </g>
     <g id="text_1">
      <!-- $\mathdefault{10^{19}}$ -->
      <g transform="translate(56.560852 287.910437)scale(0.1 -0.1)">
       <defs>
        <path id="DejaVuSans-31" d="M 794 531 
L 1825 531 
L 1825 4091 
L 703 3866 
L 703 4441 
L 1819 4666 
L 2450 4666 
L 2450 531 
L 3481 531 
L 3481 0 
L 794 0 
L 794 531 
z
" transform="scale(0.015625)"/>
        <path id="DejaVuSans-30" d="M 2034 4250 
Q 1547 4250 1301 3770 
Q 1056 3291 1056 2328 
Q 1056 1369 1301 889 
Q 1547 409 2034 409 
Q 2525 409 2770 889 
Q 3016 1369 3016 2328 
Q 3016 3291 2770 3770 
Q 2525 4250 2034 4250 
z
M 2034 4750 
Q 2819 4750 3233 4129 
Q 3647 3509 3647 2328 
Q 3647 1150 3233 529 
Q 2819 -91 2034 -91 
Q 1250 -91 836 529 
Q 422 1150 422 2328 
Q 422 3509 836 4129 
Q 1250 4750 2034 4750 
z
" transform="scale(0.015625)"/>
        <path id="DejaVuSans-39" d="M 703 97 
L 703 672 
Q 941 559 1184 500 
Q 1428 441 1663 441 
Q 2288 441 2617 861 
Q 2947 1281 2994 2138 
Q 2813 1869 2534 1725 
Q 2256 1581 1919 1581 
Q 1219 1581 811 2004 
Q 403 2428 403 3163 
Q 403 3881 828 4315 
Q 1253 4750 1959 4750 
Q 2769 4750 3195 4129 
Q 3622 3509 3622 2328 
Q 3622 1225 3098 567 
Q 2575 -91 1691 -91 
Q 1453 -91 1209 -44 
Q 966 3 703 97 
z
M 1959 2075 
Q 2384 2075 2632 2365 
Q 2881 2656 2881 3163 
Q 2881 3666 2632 3958 
Q 2384 4250 1959 4250 
Q 1534 4250 1286 3958 
Q 1038 3666 1038 3163 
Q 1038 2656 1286 2365 
Q 1534 2075 1959 2075 
z
" transform="scale(0.015625)"/>
       </defs>
       <use xlink:href="#DejaVuSans-31" transform="translate(0 0.765625)"/>
       <use xlink:href="#DejaVuSans-30" transform="translate(63.623047 0.765625)"/>
       <use xlink:href="#DejaVuSans-31" transform="translate(128.203125 39.046875)scale(0.7)"/>
       <use xlink:href="#DejaVuSans-39" transform="translate(172.739258 39.046875)scale(0.7)"/>
      </g>
     </g>
    </g>
    <g id="xtick_2">
     <g id="line2d_2">
      <g>
       <use xlink:href="#m1def306a6f" x="132.541761" y="273.312" style="stroke: #000000; stroke-width: 0.8"/>
      </g>
     </g>
     <g id="text_2">
      <!-- $\mathdefault{10^{20}}$ -->
      <g transform="translate(121.491761 287.910437)scale(0.1 -0.1)">
       <defs>
        <path id="DejaVuSans-32" d="M 1228 531 
L 3431 531 
L 3431 0 
L 469 0 
L 469 531 
Q 828 903 1448 1529 
Q 2069 2156 2228 2338 
Q 2531 2678 2651 2914 
Q 2772 3150 2772 3378 
Q 2772 3750 2511 3984 
Q 2250 4219 1831 4219 
Q 1534 4219 1204 4116 
Q 875 4013 500 3803 
L 500 4441 
Q 881 4594 1212 4672 
Q 1544 4750 1819 4750 
Q 2544 4750 2975 4387 
Q 3406 4025 3406 3419 
Q 3406 3131 3298 2873 
Q 3191 2616 2906 2266 
Q 2828 2175 2409 1742 
Q 1991 1309 1228 531 
z
" transform="scale(0.015625)"/>
       </defs>
       <use xlink:href="#DejaVuSans-31" transform="translate(0 0.765625)"/>
       <use xlink:href="#DejaVuSans-30" transform="translate(63.623047 0.765625)"/>
       <use xlink:href="#DejaVuSans-32" transform="translate(128.203125 39.046875)scale(0.7)"/>
       <use xlink:href="#DejaVuSans-30" transform="translate(172.739258 39.046875)scale(0.7)"/>
      </g>
     </g>
    </g>
    <g id="xtick_3">
     <g id="line2d_3">
      <g>
       <use xlink:href="#m1def306a6f" x="197.47267" y="273.312" style="stroke: #000000; stroke-width: 0.8"/>
      </g>
     </g>
     <g id="text_3">
      <!-- $\mathdefault{10^{21}}$ -->
      <g transform="translate(186.42267 287.910437)scale(0.1 -0.1)">
       <use xlink:href="#DejaVuSans-31" transform="translate(0 0.765625)"/>
       <use xlink:href="#DejaVuSans-30" transform="translate(63.623047 0.765625)"/>
       <use xlink:href="#DejaVuSans-32" transform="translate(128.203125 39.046875)scale(0.7)"/>
       <use xlink:href="#DejaVuSans-31" transform="translate(172.739258 39.046875)scale(0.7)"/>
      </g>
     </g>
    </g>
    <g id="xtick_4">
     <g id="line2d_4">
      <g>
       <use xlink:href="#m1def306a6f" x="262.40358" y="273.312" style="stroke: #000000; stroke-width: 0.8"/>
      </g>
     </g>
     <g id="text_4">
      <!-- $\mathdefault{10^{22}}$ -->
      <g transform="translate(251.35358 287.910437)scale(0.1 -0.1)">
       <use xlink:href="#DejaVuSans-31" transform="translate(0 0.765625)"/>
       <use xlink:href="#DejaVuSans-30" transform="translate(63.623047 0.765625)"/>
       <use xlink:href="#DejaVuSans-32" transform="translate(128.203125 39.046875)scale(0.7)"/>
       <use xlink:href="#DejaVuSans-32" transform="translate(172.739258 39.046875)scale(0.7)"/>
      </g>
     </g>
    </g>
    <g id="xtick_5">
     <g id="line2d_5">
      <g>
       <use xlink:href="#m1def306a6f" x="327.334489" y="273.312" style="stroke: #000000; stroke-width: 0.8"/>
      </g>
     </g>
     <g id="text_5">
      <!-- $\mathdefault{10^{23}}$ -->
      <g transform="translate(316.284489 287.910437)scale(0.1 -0.1)">
       <defs>
        <path id="DejaVuSans-33" d="M 2597 2516 
Q 3050 2419 3304 2112 
Q 3559 1806 3559 1356 
Q 3559 666 3084 287 
Q 2609 -91 1734 -91 
Q 1441 -91 1130 -33 
Q 819 25 488 141 
L 488 750 
Q 750 597 1062 519 
Q 1375 441 1716 441 
Q 2309 441 2620 675 
Q 2931 909 2931 1356 
Q 2931 1769 2642 2001 
Q 2353 2234 1838 2234 
L 1294 2234 
L 1294 2753 
L 1863 2753 
Q 2328 2753 2575 2939 
Q 2822 3125 2822 3475 
Q 2822 3834 2567 4026 
Q 2313 4219 1838 4219 
Q 1578 4219 1281 4162 
Q 984 4106 628 3988 
L 628 4550 
Q 988 4650 1302 4700 
Q 1616 4750 1894 4750 
Q 2613 4750 3031 4423 
Q 3450 4097 3450 3541 
Q 3450 3153 3228 2886 
Q 3006 2619 2597 2516 
z
" transform="scale(0.015625)"/>
       </defs>
       <use xlink:href="#DejaVuSans-31" transform="translate(0 0.765625)"/>
       <use xlink:href="#DejaVuSans-30" transform="translate(63.623047 0.765625)"/>
       <use xlink:href="#DejaVuSans-32" transform="translate(128.203125 39.046875)scale(0.7)"/>
       <use xlink:href="#DejaVuSans-33" transform="translate(172.739258 39.046875)scale(0.7)"/>
      </g>
     </g>
    </g>
    <g id="xtick_6">
     <g id="line2d_6">
      <g>
       <use xlink:href="#m1def306a6f" x="392.265398" y="273.312" style="stroke: #000000; stroke-width: 0.8"/>
      </g>
     </g>
     <g id="text_6">
      <!-- $\mathdefault{10^{24}}$ -->
      <g transform="translate(381.215398 287.910437)scale(0.1 -0.1)">
       <defs>
        <path id="DejaVuSans-34" d="M 2419 4116 
L 825 1625 
L 2419 1625 
L 2419 4116 
z
M 2253 4666 
L 3047 4666 
L 3047 1625 
L 3713 1625 
L 3713 1100 
L 3047 1100 
L 3047 0 
L 2419 0 
L 2419 1100 
L 313 1100 
L 313 1709 
L 2253 4666 
z
" transform="scale(0.015625)"/>
       </defs>
       <use xlink:href="#DejaVuSans-31" transform="translate(0 0.765625)"/>
       <use xlink:href="#DejaVuSans-30" transform="translate(63.623047 0.765625)"/>
       <use xlink:href="#DejaVuSans-32" transform="translate(128.203125 39.046875)scale(0.7)"/>
       <use xlink:href="#DejaVuSans-34" transform="translate(172.739258 39.046875)scale(0.7)"/>
      </g>
     </g>
    </g>
    <g id="xtick_7">
     <g id="line2d_7">
      <defs>
       <path id="me6cac1d461" d="M 0 0 
L 0 2 
" style="stroke: #000000; stroke-width: 0.6"/>
      </defs>
      <g>
       <use xlink:href="#me6cac1d461" x="53.206011" y="273.312" style="stroke: #000000; stroke-width: 0.6"/>
      </g>
     </g>
    </g>
    <g id="xtick_8">
     <g id="line2d_8">
      <g>
       <use xlink:href="#me6cac1d461" x="57.552927" y="273.312" style="stroke: #000000; stroke-width: 0.6"/>
      </g>
     </g>
    </g>
    <g id="xtick_9">
     <g id="line2d_9">
      <g>
       <use xlink:href="#me6cac1d461" x="61.318397" y="273.312" style="stroke: #000000; stroke-width: 0.6"/>
      </g>
     </g>
    </g>
    <g id="xtick_10">
     <g id="line2d_10">
      <g>
       <use xlink:href="#me6cac1d461" x="64.639777" y="273.312" style="stroke: #000000; stroke-width: 0.6"/>
      </g>
     </g>
    </g>
    <g id="xtick_11">
     <g id="line2d_11">
      <g>
       <use xlink:href="#me6cac1d461" x="87.157004" y="273.312" style="stroke: #000000; stroke-width: 0.6"/>
      </g>
     </g>
    </g>
    <g id="xtick_12">
     <g id="line2d_12">
      <g>
       <use xlink:href="#me6cac1d461" x="98.590769" y="273.312" style="stroke: #000000; stroke-width: 0.6"/>
      </g>
     </g>
    </g>
    <g id="xtick_13">
     <g id="line2d_13">
      <g>
       <use xlink:href="#me6cac1d461" x="106.703155" y="273.312" style="stroke: #000000; stroke-width: 0.6"/>
      </g>
     </g>
    </g>
    <g id="xtick_14">
     <g id="line2d_14">
      <g>
       <use xlink:href="#me6cac1d461" x="112.99561" y="273.312" style="stroke: #000000; stroke-width: 0.6"/>
      </g>
     </g>
    </g>
    <g id="xtick_15">
     <g id="line2d_15">
      <g>
       <use xlink:href="#me6cac1d461" x="118.13692" y="273.312" style="stroke: #000000; stroke-width: 0.6"/>
      </g>
     </g>
    </g>
    <g id="xtick_16">
     <g id="line2d_16">
      <g>
       <use xlink:href="#me6cac1d461" x="122.483836" y="273.312" style="stroke: #000000; stroke-width: 0.6"/>
      </g>
     </g>
    </g>
    <g id="xtick_17">
     <g id="line2d_17">
      <g>
       <use xlink:href="#me6cac1d461" x="126.249306" y="273.312" style="stroke: #000000; stroke-width: 0.6"/>
      </g>
     </g>
    </g>
    <g id="xtick_18">
     <g id="line2d_18">
      <g>
       <use xlink:href="#me6cac1d461" x="129.570686" y="273.312" style="stroke: #000000; stroke-width: 0.6"/>
      </g>
     </g>
    </g>
    <g id="xtick_19">
     <g id="line2d_19">
      <g>
       <use xlink:href="#me6cac1d461" x="152.087913" y="273.312" style="stroke: #000000; stroke-width: 0.6"/>
      </g>
     </g>
    </g>
    <g id="xtick_20">
     <g id="line2d_20">
      <g>
       <use xlink:href="#me6cac1d461" x="163.521678" y="273.312" style="stroke: #000000; stroke-width: 0.6"/>
      </g>
     </g>
    </g>
    <g id="xtick_21">
     <g id="line2d_21">
      <g>
       <use xlink:href="#me6cac1d461" x="171.634064" y="273.312" style="stroke: #000000; stroke-width: 0.6"/>
      </g>
     </g>
    </g>
    <g id="xtick_22">
     <g id="line2d_22">
      <g>
       <use xlink:href="#me6cac1d461" x="177.926519" y="273.312" style="stroke: #000000; stroke-width: 0.6"/>
      </g>
     </g>
    </g>
    <g id="xtick_23">
     <g id="line2d_23">
      <g>
       <use xlink:href="#me6cac1d461" x="183.067829" y="273.312" style="stroke: #000000; stroke-width: 0.6"/>
      </g>
     </g>
    </g>
    <g id="xtick_24">
     <g id="line2d_24">
      <g>
       <use xlink:href="#me6cac1d461" x="187.414745" y="273.312" style="stroke: #000000; stroke-width: 0.6"/>
      </g>
     </g>
    </g>
    <g id="xtick_25">
     <g id="line2d_25">
      <g>
       <use xlink:href="#me6cac1d461" x="191.180215" y="273.312" style="stroke: #000000; stroke-width: 0.6"/>
      </g>
     </g>
    </g>
    <g id="xtick_26">
     <g id="line2d_26">
      <g>
       <use xlink:href="#me6cac1d461" x="194.501595" y="273.312" style="stroke: #000000; stroke-width: 0.6"/>
      </g>
     </g>
    </g>
    <g id="xtick_27">
     <g id="line2d_27">
      <g>
       <use xlink:href="#me6cac1d461" x="217.018822" y="273.312" style="stroke: #000000; stroke-width: 0.6"/>
      </g>
     </g>
    </g>
    <g id="xtick_28">
     <g id="line2d_28">
      <g>
       <use xlink:href="#me6cac1d461" x="228.452587" y="273.312" style="stroke: #000000; stroke-width: 0.6"/>
      </g>
     </g>
    </g>
    <g id="xtick_29">
     <g id="line2d_29">
      <g>
       <use xlink:href="#me6cac1d461" x="236.564973" y="273.312" style="stroke: #000000; stroke-width: 0.6"/>
      </g>
     </g>
    </g>
    <g id="xtick_30">
     <g id="line2d_30">
      <g>
       <use xlink:href="#me6cac1d461" x="242.857428" y="273.312" style="stroke: #000000; stroke-width: 0.6"/>
      </g>
     </g>
    </g>
    <g id="xtick_31">
     <g id="line2d_31">
      <g>
       <use xlink:href="#me6cac1d461" x="247.998739" y="273.312" style="stroke: #000000; stroke-width: 0.6"/>
      </g>
     </g>
    </g>
    <g id="xtick_32">
     <g id="line2d_32">
      <g>
       <use xlink:href="#me6cac1d461" x="252.345654" y="273.312" style="stroke: #000000; stroke-width: 0.6"/>
      </g>
     </g>
    </g>
    <g id="xtick_33">
     <g id="line2d_33">
      <g>
       <use xlink:href="#me6cac1d461" x="256.111124" y="273.312" style="stroke: #000000; stroke-width: 0.6"/>
      </g>
     </g>
    </g>
    <g id="xtick_34">
     <g id="line2d_34">
      <g>
       <use xlink:href="#me6cac1d461" x="259.432504" y="273.312" style="stroke: #000000; stroke-width: 0.6"/>
      </g>
     </g>
    </g>
    <g id="xtick_35">
     <g id="line2d_35">
      <g>
       <use xlink:href="#me6cac1d461" x="281.949731" y="273.312" style="stroke: #000000; stroke-width: 0.6"/>
      </g>
     </g>
    </g>
    <g id="xtick_36">
     <g id="line2d_36">
      <g>
       <use xlink:href="#me6cac1d461" x="293.383496" y="273.312" style="stroke: #000000; stroke-width: 0.6"/>
      </g>
     </g>
    </g>
    <g id="xtick_37">
     <g id="line2d_37">
      <g>
       <use xlink:href="#me6cac1d461" x="301.495882" y="273.312" style="stroke: #000000; stroke-width: 0.6"/>
      </g>
     </g>
    </g>
    <g id="xtick_38">
     <g id="line2d_38">
      <g>
       <use xlink:href="#me6cac1d461" x="307.788337" y="273.312" style="stroke: #000000; stroke-width: 0.6"/>
      </g>
     </g>
    </g>
    <g id="xtick_39">
     <g id="line2d_39">
      <g>
       <use xlink:href="#me6cac1d461" x="312.929648" y="273.312" style="stroke: #000000; stroke-width: 0.6"/>
      </g>
     </g>
    </g>
    <g id="xtick_40">
     <g id="line2d_40">
      <g>
       <use xlink:href="#me6cac1d461" x="317.276564" y="273.312" style="stroke: #000000; stroke-width: 0.6"/>
      </g>
     </g>
    </g>
    <g id="xtick_41">
     <g id="line2d_41">
      <g>
       <use xlink:href="#me6cac1d461" x="321.042033" y="273.312" style="stroke: #000000; stroke-width: 0.6"/>
      </g>
     </g>
    </g>
    <g id="xtick_42">
     <g id="line2d_42">
      <g>
       <use xlink:href="#me6cac1d461" x="324.363413" y="273.312" style="stroke: #000000; stroke-width: 0.6"/>
      </g>
     </g>
    </g>
    <g id="xtick_43">
     <g id="line2d_43">
      <g>
       <use xlink:href="#me6cac1d461" x="346.88064" y="273.312" style="stroke: #000000; stroke-width: 0.6"/>
      </g>
     </g>
    </g>
    <g id="xtick_44">
     <g id="line2d_44">
      <g>
       <use xlink:href="#me6cac1d461" x="358.314405" y="273.312" style="stroke: #000000; stroke-width: 0.6"/>
      </g>
     </g>
    </g>
    <g id="xtick_45">
     <g id="line2d_45">
      <g>
       <use xlink:href="#me6cac1d461" x="366.426791" y="273.312" style="stroke: #000000; stroke-width: 0.6"/>
      </g>
     </g>
    </g>
    <g id="xtick_46">
     <g id="line2d_46">
      <g>
       <use xlink:href="#me6cac1d461" x="372.719246" y="273.312" style="stroke: #000000; stroke-width: 0.6"/>
      </g>
     </g>
    </g>
    <g id="xtick_47">
     <g id="line2d_47">
      <g>
       <use xlink:href="#me6cac1d461" x="377.860557" y="273.312" style="stroke: #000000; stroke-width: 0.6"/>
      </g>
     </g>
    </g>
    <g id="xtick_48">
     <g id="line2d_48">
      <g>
       <use xlink:href="#me6cac1d461" x="382.207473" y="273.312" style="stroke: #000000; stroke-width: 0.6"/>
      </g>
     </g>
    </g>
    <g id="xtick_49">
     <g id="line2d_49">
      <g>
       <use xlink:href="#me6cac1d461" x="385.972942" y="273.312" style="stroke: #000000; stroke-width: 0.6"/>
      </g>
     </g>
    </g>
    <g id="xtick_50">
     <g id="line2d_50">
      <g>
       <use xlink:href="#me6cac1d461" x="389.294322" y="273.312" style="stroke: #000000; stroke-width: 0.6"/>
      </g>
     </g>
    </g>
    <g id="text_7">
     <!-- Neutron Fluence [n/cm^2] -->
     <g transform="translate(163.392812 301.588562)scale(0.1 -0.1)">
      <defs>
       <path id="DejaVuSans-4e" d="M 628 4666 
L 1478 4666 
L 3547 763 
L 3547 4666 
L 4159 4666 
L 4159 0 
L 3309 0 
L 1241 3903 
L 1241 0 
L 628 0 
L 628 4666 
z
" transform="scale(0.015625)"/>
       <path id="DejaVuSans-65" d="M 3597 1894 
L 3597 1613 
L 953 1613 
Q 991 1019 1311 708 
Q 1631 397 2203 397 
Q 2534 397 2845 478 
Q 3156 559 3463 722 
L 3463 178 
Q 3153 47 2828 -22 
Q 2503 -91 2169 -91 
Q 1331 -91 842 396 
Q 353 884 353 1716 
Q 353 2575 817 3079 
Q 1281 3584 2069 3584 
Q 2775 3584 3186 3129 
Q 3597 2675 3597 1894 
z
M 3022 2063 
Q 3016 2534 2758 2815 
Q 2500 3097 2075 3097 
Q 1594 3097 1305 2825 
Q 1016 2553 972 2059 
L 3022 2063 
z
" transform="scale(0.015625)"/>
       <path id="DejaVuSans-75" d="M 544 1381 
L 544 3500 
L 1119 3500 
L 1119 1403 
Q 1119 906 1312 657 
Q 1506 409 1894 409 
Q 2359 409 2629 706 
Q 2900 1003 2900 1516 
L 2900 3500 
L 3475 3500 
L 3475 0 
L 2900 0 
L 2900 538 
Q 2691 219 2414 64 
Q 2138 -91 1772 -91 
Q 1169 -91 856 284 
Q 544 659 544 1381 
z
M 1991 3584 
L 1991 3584 
z
" transform="scale(0.015625)"/>
       <path id="DejaVuSans-74" d="M 1172 4494 
L 1172 3500 
L 2356 3500 
L 2356 3053 
L 1172 3053 
L 1172 1153 
Q 1172 725 1289 603 
Q 1406 481 1766 481 
L 2356 481 
L 2356 0 
L 1766 0 
Q 1100 0 847 248 
Q 594 497 594 1153 
L 594 3053 
L 172 3053 
L 172 3500 
L 594 3500 
L 594 4494 
L 1172 4494 
z
" transform="scale(0.015625)"/>
       <path id="DejaVuSans-72" d="M 2631 2963 
Q 2534 3019 2420 3045 
Q 2306 3072 2169 3072 
Q 1681 3072 1420 2755 
Q 1159 2438 1159 1844 
L 1159 0 
L 581 0 
L 581 3500 
L 1159 3500 
L 1159 2956 
Q 1341 3275 1631 3429 
Q 1922 3584 2338 3584 
Q 2397 3584 2469 3576 
Q 2541 3569 2628 3553 
L 2631 2963 
z
" transform="scale(0.015625)"/>
       <path id="DejaVuSans-6f" d="M 1959 3097 
Q 1497 3097 1228 2736 
Q 959 2375 959 1747 
Q 959 1119 1226 758 
Q 1494 397 1959 397 
Q 2419 397 2687 759 
Q 2956 1122 2956 1747 
Q 2956 2369 2687 2733 
Q 2419 3097 1959 3097 
z
M 1959 3584 
Q 2709 3584 3137 3096 
Q 3566 2609 3566 1747 
Q 3566 888 3137 398 
Q 2709 -91 1959 -91 
Q 1206 -91 779 398 
Q 353 888 353 1747 
Q 353 2609 779 3096 
Q 1206 3584 1959 3584 
z
" transform="scale(0.015625)"/>
       <path id="DejaVuSans-6e" d="M 3513 2113 
L 3513 0 
L 2938 0 
L 2938 2094 
Q 2938 2591 2744 2837 
Q 2550 3084 2163 3084 
Q 1697 3084 1428 2787 
Q 1159 2491 1159 1978 
L 1159 0 
L 581 0 
L 581 3500 
L 1159 3500 
L 1159 2956 
Q 1366 3272 1645 3428 
Q 1925 3584 2291 3584 
Q 2894 3584 3203 3211 
Q 3513 2838 3513 2113 
z
" transform="scale(0.015625)"/>
       <path id="DejaVuSans-20" transform="scale(0.015625)"/>
       <path id="DejaVuSans-46" d="M 628 4666 
L 3309 4666 
L 3309 4134 
L 1259 4134 
L 1259 2759 
L 3109 2759 
L 3109 2228 
L 1259 2228 
L 1259 0 
L 628 0 
L 628 4666 
z
" transform="scale(0.015625)"/>
       <path id="DejaVuSans-6c" d="M 603 4863 
L 1178 4863 
L 1178 0 
L 603 0 
L 603 4863 
z
" transform="scale(0.015625)"/>
       <path id="DejaVuSans-63" d="M 3122 3366 
L 3122 2828 
Q 2878 2963 2633 3030 
Q 2388 3097 2138 3097 
Q 1578 3097 1268 2742 
Q 959 2388 959 1747 
Q 959 1106 1268 751 
Q 1578 397 2138 397 
Q 2388 397 2633 464 
Q 2878 531 3122 666 
L 3122 134 
Q 2881 22 2623 -34 
Q 2366 -91 2075 -91 
Q 1284 -91 818 406 
Q 353 903 353 1747 
Q 353 2603 823 3093 
Q 1294 3584 2113 3584 
Q 2378 3584 2631 3529 
Q 2884 3475 3122 3366 
z
" transform="scale(0.015625)"/>
       <path id="DejaVuSans-5b" d="M 550 4863 
L 1875 4863 
L 1875 4416 
L 1125 4416 
L 1125 -397 
L 1875 -397 
L 1875 -844 
L 550 -844 
L 550 4863 
z
" transform="scale(0.015625)"/>
       <path id="DejaVuSans-2f" d="M 1625 4666 
L 2156 4666 
L 531 -594 
L 0 -594 
L 1625 4666 
z
" transform="scale(0.015625)"/>
       <path id="DejaVuSans-6d" d="M 3328 2828 
Q 3544 3216 3844 3400 
Q 4144 3584 4550 3584 
Q 5097 3584 5394 3201 
Q 5691 2819 5691 2113 
L 5691 0 
L 5113 0 
L 5113 2094 
Q 5113 2597 4934 2840 
Q 4756 3084 4391 3084 
Q 3944 3084 3684 2787 
Q 3425 2491 3425 1978 
L 3425 0 
L 2847 0 
L 2847 2094 
Q 2847 2600 2669 2842 
Q 2491 3084 2119 3084 
Q 1678 3084 1418 2786 
Q 1159 2488 1159 1978 
L 1159 0 
L 581 0 
L 581 3500 
L 1159 3500 
L 1159 2956 
Q 1356 3278 1631 3431 
Q 1906 3584 2284 3584 
Q 2666 3584 2933 3390 
Q 3200 3197 3328 2828 
z
" transform="scale(0.015625)"/>
       <path id="DejaVuSans-5e" d="M 2988 4666 
L 4684 2925 
L 4056 2925 
L 2681 4159 
L 1306 2925 
L 678 2925 
L 2375 4666 
L 2988 4666 
z
" transform="scale(0.015625)"/>
       <path id="DejaVuSans-5d" d="M 1947 4863 
L 1947 -844 
L 622 -844 
L 622 -397 
L 1369 -397 
L 1369 4416 
L 622 4416 
L 622 4863 
L 1947 4863 
z
" transform="scale(0.015625)"/>
      </defs>
      <use xlink:href="#DejaVuSans-4e"/>
      <use xlink:href="#DejaVuSans-65" x="74.804688"/>
      <use xlink:href="#DejaVuSans-75" x="136.328125"/>
      <use xlink:href="#DejaVuSans-74" x="199.707031"/>
      <use xlink:href="#DejaVuSans-72" x="238.916016"/>
      <use xlink:href="#DejaVuSans-6f" x="277.779297"/>
      <use xlink:href="#DejaVuSans-6e" x="338.960938"/>
      <use xlink:href="#DejaVuSans-20" x="402.339844"/>
      <use xlink:href="#DejaVuSans-46" x="434.126953"/>
      <use xlink:href="#DejaVuSans-6c" x="491.646484"/>
      <use xlink:href="#DejaVuSans-75" x="519.429688"/>
      <use xlink:href="#DejaVuSans-65" x="582.808594"/>
      <use xlink:href="#DejaVuSans-6e" x="644.332031"/>
      <use xlink:href="#DejaVuSans-63" x="707.710938"/>
      <use xlink:href="#DejaVuSans-65" x="762.691406"/>
      <use xlink:href="#DejaVuSans-20" x="824.214844"/>
      <use xlink:href="#DejaVuSans-5b" x="856.001953"/>
      <use xlink:href="#DejaVuSans-6e" x="895.015625"/>
      <use xlink:href="#DejaVuSans-2f" x="958.394531"/>
      <use xlink:href="#DejaVuSans-63" x="992.085938"/>
      <use xlink:href="#DejaVuSans-6d" x="1047.066406"/>
      <use xlink:href="#DejaVuSans-5e" x="1144.478516"/>
      <use xlink:href="#DejaVuSans-32" x="1228.267578"/>
      <use xlink:href="#DejaVuSans-5d" x="1291.890625"/>
     </g>
    </g>
   </g>
   <g id="matplotlib.axis_2">
    <g id="ytick_1">
     <g id="line2d_51">
      <defs>
       <path id="m1ca7aa45de" d="M 0 0 
L -3.5 0 
" style="stroke: #000000; stroke-width: 0.8"/>
      </defs>
      <g>
       <use xlink:href="#m1ca7aa45de" x="51.378125" y="240.645755" style="stroke: #000000; stroke-width: 0.8"/>
      </g>
     </g>
     <g id="text_8">
      <!-- $\mathdefault{10^{-8}}$ -->
      <g transform="translate(20.878125 244.444974)scale(0.1 -0.1)">
       <defs>
        <path id="DejaVuSans-2212" d="M 678 2272 
L 4684 2272 
L 4684 1741 
L 678 1741 
L 678 2272 
z
" transform="scale(0.015625)"/>
        <path id="DejaVuSans-38" d="M 2034 2216 
Q 1584 2216 1326 1975 
Q 1069 1734 1069 1313 
Q 1069 891 1326 650 
Q 1584 409 2034 409 
Q 2484 409 2743 651 
Q 3003 894 3003 1313 
Q 3003 1734 2745 1975 
Q 2488 2216 2034 2216 
z
M 1403 2484 
Q 997 2584 770 2862 
Q 544 3141 544 3541 
Q 544 4100 942 4425 
Q 1341 4750 2034 4750 
Q 2731 4750 3128 4425 
Q 3525 4100 3525 3541 
Q 3525 3141 3298 2862 
Q 3072 2584 2669 2484 
Q 3125 2378 3379 2068 
Q 3634 1759 3634 1313 
Q 3634 634 3220 271 
Q 2806 -91 2034 -91 
Q 1263 -91 848 271 
Q 434 634 434 1313 
Q 434 1759 690 2068 
Q 947 2378 1403 2484 
z
M 1172 3481 
Q 1172 3119 1398 2916 
Q 1625 2713 2034 2713 
Q 2441 2713 2670 2916 
Q 2900 3119 2900 3481 
Q 2900 3844 2670 4047 
Q 2441 4250 2034 4250 
Q 1625 4250 1398 4047 
Q 1172 3844 1172 3481 
z
" transform="scale(0.015625)"/>
       </defs>
       <use xlink:href="#DejaVuSans-31" transform="translate(0 0.765625)"/>
       <use xlink:href="#DejaVuSans-30" transform="translate(63.623047 0.765625)"/>
       <use xlink:href="#DejaVuSans-2212" transform="translate(128.203125 39.046875)scale(0.7)"/>
       <use xlink:href="#DejaVuSans-38" transform="translate(186.855469 39.046875)scale(0.7)"/>
      </g>
     </g>
    </g>
    <g id="ytick_2">
     <g id="line2d_52">
      <g>
       <use xlink:href="#m1ca7aa45de" x="51.378125" y="185.015414" style="stroke: #000000; stroke-width: 0.8"/>
      </g>
     </g>
     <g id="text_9">
      <!-- $\mathdefault{10^{-6}}$ -->
      <g transform="translate(20.878125 188.814633)scale(0.1 -0.1)">
       <defs>
        <path id="DejaVuSans-36" d="M 2113 2584 
Q 1688 2584 1439 2293 
Q 1191 2003 1191 1497 
Q 1191 994 1439 701 
Q 1688 409 2113 409 
Q 2538 409 2786 701 
Q 3034 994 3034 1497 
Q 3034 2003 2786 2293 
Q 2538 2584 2113 2584 
z
M 3366 4563 
L 3366 3988 
Q 3128 4100 2886 4159 
Q 2644 4219 2406 4219 
Q 1781 4219 1451 3797 
Q 1122 3375 1075 2522 
Q 1259 2794 1537 2939 
Q 1816 3084 2150 3084 
Q 2853 3084 3261 2657 
Q 3669 2231 3669 1497 
Q 3669 778 3244 343 
Q 2819 -91 2113 -91 
Q 1303 -91 875 529 
Q 447 1150 447 2328 
Q 447 3434 972 4092 
Q 1497 4750 2381 4750 
Q 2619 4750 2861 4703 
Q 3103 4656 3366 4563 
z
" transform="scale(0.015625)"/>
       </defs>
       <use xlink:href="#DejaVuSans-31" transform="translate(0 0.765625)"/>
       <use xlink:href="#DejaVuSans-30" transform="translate(63.623047 0.765625)"/>
       <use xlink:href="#DejaVuSans-2212" transform="translate(128.203125 39.046875)scale(0.7)"/>
       <use xlink:href="#DejaVuSans-36" transform="translate(186.855469 39.046875)scale(0.7)"/>
      </g>
     </g>
    </g>
    <g id="ytick_3">
     <g id="line2d_53">
      <g>
       <use xlink:href="#m1ca7aa45de" x="51.378125" y="129.385073" style="stroke: #000000; stroke-width: 0.8"/>
      </g>
     </g>
     <g id="text_10">
      <!-- $\mathdefault{10^{-4}}$ -->
      <g transform="translate(20.878125 133.184291)scale(0.1 -0.1)">
       <use xlink:href="#DejaVuSans-31" transform="translate(0 0.684375)"/>
       <use xlink:href="#DejaVuSans-30" transform="translate(63.623047 0.684375)"/>
       <use xlink:href="#DejaVuSans-2212" transform="translate(128.203125 38.965625)scale(0.7)"/>
       <use xlink:href="#DejaVuSans-34" transform="translate(186.855469 38.965625)scale(0.7)"/>
      </g>
     </g>
    </g>
    <g id="ytick_4">
     <g id="line2d_54">
      <g>
       <use xlink:href="#m1ca7aa45de" x="51.378125" y="73.754731" style="stroke: #000000; stroke-width: 0.8"/>
      </g>
     </g>
     <g id="text_11">
      <!-- $\mathdefault{10^{-2}}$ -->
      <g transform="translate(20.878125 77.55395)scale(0.1 -0.1)">
       <use xlink:href="#DejaVuSans-31" transform="translate(0 0.765625)"/>
       <use xlink:href="#DejaVuSans-30" transform="translate(63.623047 0.765625)"/>
       <use xlink:href="#DejaVuSans-2212" transform="translate(128.203125 39.046875)scale(0.7)"/>
       <use xlink:href="#DejaVuSans-32" transform="translate(186.855469 39.046875)scale(0.7)"/>
      </g>
     </g>
    </g>
    <g id="ytick_5">
     <g id="line2d_55">
      <g>
       <use xlink:href="#m1ca7aa45de" x="51.378125" y="18.12439" style="stroke: #000000; stroke-width: 0.8"/>
      </g>
     </g>
     <g id="text_12">
      <!-- $\mathdefault{10^{0}}$ -->
      <g transform="translate(26.778125 21.923608)scale(0.1 -0.1)">
       <use xlink:href="#DejaVuSans-31" transform="translate(0 0.765625)"/>
       <use xlink:href="#DejaVuSans-30" transform="translate(63.623047 0.765625)"/>
       <use xlink:href="#DejaVuSans-30" transform="translate(128.203125 39.046875)scale(0.7)"/>
      </g>
     </g>
    </g>
    <g id="text_13">
     <!-- Number Fraction [-] -->
     <g transform="translate(14.798438 189.184906)rotate(-90)scale(0.1 -0.1)">
      <defs>
       <path id="DejaVuSans-62" d="M 3116 1747 
Q 3116 2381 2855 2742 
Q 2594 3103 2138 3103 
Q 1681 3103 1420 2742 
Q 1159 2381 1159 1747 
Q 1159 1113 1420 752 
Q 1681 391 2138 391 
Q 2594 391 2855 752 
Q 3116 1113 3116 1747 
z
M 1159 2969 
Q 1341 3281 1617 3432 
Q 1894 3584 2278 3584 
Q 2916 3584 3314 3078 
Q 3713 2572 3713 1747 
Q 3713 922 3314 415 
Q 2916 -91 2278 -91 
Q 1894 -91 1617 61 
Q 1341 213 1159 525 
L 1159 0 
L 581 0 
L 581 4863 
L 1159 4863 
L 1159 2969 
z
" transform="scale(0.015625)"/>
       <path id="DejaVuSans-61" d="M 2194 1759 
Q 1497 1759 1228 1600 
Q 959 1441 959 1056 
Q 959 750 1161 570 
Q 1363 391 1709 391 
Q 2188 391 2477 730 
Q 2766 1069 2766 1631 
L 2766 1759 
L 2194 1759 
z
M 3341 1997 
L 3341 0 
L 2766 0 
L 2766 531 
Q 2569 213 2275 61 
Q 1981 -91 1556 -91 
Q 1019 -91 701 211 
Q 384 513 384 1019 
Q 384 1609 779 1909 
Q 1175 2209 1959 2209 
L 2766 2209 
L 2766 2266 
Q 2766 2663 2505 2880 
Q 2244 3097 1772 3097 
Q 1472 3097 1187 3025 
Q 903 2953 641 2809 
L 641 3341 
Q 956 3463 1253 3523 
Q 1550 3584 1831 3584 
Q 2591 3584 2966 3190 
Q 3341 2797 3341 1997 
z
" transform="scale(0.015625)"/>
       <path id="DejaVuSans-69" d="M 603 3500 
L 1178 3500 
L 1178 0 
L 603 0 
L 603 3500 
z
M 603 4863 
L 1178 4863 
L 1178 4134 
L 603 4134 
L 603 4863 
z
" transform="scale(0.015625)"/>
       <path id="DejaVuSans-2d" d="M 313 2009 
L 1997 2009 
L 1997 1497 
L 313 1497 
L 313 2009 
z
" transform="scale(0.015625)"/>
      </defs>
      <use xlink:href="#DejaVuSans-4e"/>
      <use xlink:href="#DejaVuSans-75" x="74.804688"/>
      <use xlink:href="#DejaVuSans-6d" x="138.183594"/>
      <use xlink:href="#DejaVuSans-62" x="235.595703"/>
      <use xlink:href="#DejaVuSans-65" x="299.072266"/>
      <use xlink:href="#DejaVuSans-72" x="360.595703"/>
      <use xlink:href="#DejaVuSans-20" x="401.708984"/>
      <use xlink:href="#DejaVuSans-46" x="433.496094"/>
      <use xlink:href="#DejaVuSans-72" x="483.765625"/>
      <use xlink:href="#DejaVuSans-61" x="524.878906"/>
      <use xlink:href="#DejaVuSans-63" x="586.158203"/>
      <use xlink:href="#DejaVuSans-74" x="641.138672"/>
      <use xlink:href="#DejaVuSans-69" x="680.347656"/>
      <use xlink:href="#DejaVuSans-6f" x="708.130859"/>
      <use xlink:href="#DejaVuSans-6e" x="769.3125"/>
      <use xlink:href="#DejaVuSans-20" x="832.691406"/>
      <use xlink:href="#DejaVuSans-5b" x="864.478516"/>
      <use xlink:href="#DejaVuSans-2d" x="903.492188"/>
      <use xlink:href="#DejaVuSans-5d" x="939.576172"/>
     </g>
    </g>
   </g>
   <g id="line2d_56">
    <path d="M 67.610852 22.730561 
L 112.99561 22.732784 
L 132.541761 22.735562 
L 177.926519 22.757789 
L 197.47267 22.785573 
L 242.857428 23.007845 
L 262.40358 23.285684 
L 307.788337 25.5084 
L 327.334489 28.286794 
L 372.719246 50.513948 
L 392.265398 78.297891 
" clip-path="url(#p5fced9d21d)" style="fill: none; stroke: #000000; stroke-width: 1.5; stroke-linecap: square"/>
   </g>
   <g id="line2d_57">
    <path d="M 67.610852 143.376971 
L 112.99561 123.95833 
L 132.541761 115.614274 
L 177.926519 96.404766 
L 197.47267 88.320414 
L 242.857428 71.120171 
L 262.40358 65.378187 
L 307.788337 61.230951 
L 327.334489 63.857477 
L 372.719246 86.082698 
L 392.265398 113.866641 
" clip-path="url(#p5fced9d21d)" style="fill: none; stroke-dasharray: 1.5,2.475; stroke-dashoffset: 0; stroke: #000000; stroke-width: 1.5"/>
   </g>
   <g id="line2d_58">
    <path d="M 67.610852 32.002512 
L 112.99561 32.002501 
L 132.541761 32.002465 
L 177.926519 32.001329 
L 197.47267 31.997852 
L 242.857428 31.899955 
L 262.40358 31.651306 
L 307.788337 28.748596 
L 327.334489 26.087816 
L 372.719246 20.074969 
L 392.265398 19.296 
" clip-path="url(#p5fced9d21d)" style="fill: none; stroke-dasharray: 5.55,2.4; stroke-dashoffset: 0; stroke: #000000; stroke-width: 1.5"/>
   </g>
   <g id="line2d_59">
    <path d="M 67.610852 261.216 
L 112.99561 222.347612 
L 132.541761 205.62064 
L 177.926519 166.891642 
L 197.47267 150.337708 
L 242.857428 112.946105 
L 262.40358 97.951519 
L 307.788337 69.571175 
L 327.334489 60.938098 
L 372.719246 49.0923 
L 392.265398 47.873516 
" clip-path="url(#p5fced9d21d)" style="fill: none; stroke-dasharray: 9.6,2.4,1.5,2.4; stroke-dashoffset: 0; stroke: #000000; stroke-width: 1.5"/>
   </g>
   <g id="text_14">
    <path d="M 74.842382 18.199264 
L 76.170507 18.199329 
L 79.403021 24.297924 
L 79.403319 18.199487 
L 80.359569 18.199534 
L 80.359212 25.490159 
L 79.031087 25.490094 
L 75.800136 19.391498 
L 75.799837 25.489935 
L 74.842025 25.489889 
L 74.842382 18.199264 
z
M 82.283699 20.021503 
L 83.182136 20.021547 
L 83.181868 25.490297 
L 82.283431 25.490253 
L 82.283699 20.021503 
z
M 82.283803 17.891815 
L 83.182241 17.891859 
L 83.182185 19.030922 
L 82.283747 19.030878 
L 82.283803 17.891815 
z
M 84.60878 22.351304 
L 87.24003 22.351433 
L 87.239991 23.151433 
L 84.608741 23.151304 
L 84.60878 22.351304 
z
M 88.808007 18.199948 
L 92.679882 18.200137 
L 92.679841 19.031387 
L 89.711091 19.031242 
L 89.711004 20.817179 
Q 89.92507 20.743752 90.139134 20.707825 
Q 90.354761 20.671898 90.570386 20.671909 
Q 91.790698 20.671969 92.503165 21.340753 
Q 93.217195 22.009538 93.217139 23.151726 
Q 93.217082 24.328288 92.484237 24.981378 
Q 91.751393 25.632904 90.41858 25.632839 
Q 89.959205 25.632816 89.482647 25.554668 
Q 89.00765 25.47652 88.499846 25.320245 
L 88.499894 24.328057 
Q 88.938945 24.567141 89.407689 24.684352 
Q 89.876433 24.801562 90.398308 24.801588 
Q 91.243621 24.801629 91.73583 24.357903 
Q 92.229602 23.914178 92.229639 23.151678 
Q 92.229676 22.39074 91.735948 21.946966 
Q 91.243783 21.501629 90.39847 21.501588 
Q 90.003158 21.501569 89.609403 21.589049 
Q 89.217211 21.67653 88.807827 21.862448 
L 88.808007 18.199948 
z
M 97.268561 22.028487 
Q 96.565436 22.028452 96.162293 22.404995 
Q 95.760712 22.781538 95.76068 23.439351 
Q 95.760648 24.098726 96.162192 24.475308 
Q 96.565298 24.85189 97.268423 24.851924 
Q 97.971548 24.851959 98.376254 24.473854 
Q 98.782523 24.094186 98.782555 23.439499 
Q 98.782587 22.781686 98.37948 22.405104 
Q 97.977936 22.028522 97.268561 22.028487 
z
M 96.282644 21.609689 
Q 95.648277 21.453408 95.293611 21.019015 
Q 94.940507 20.58306 94.940538 19.95806 
Q 94.940581 19.084623 95.56248 18.576841 
Q 96.185943 18.069059 97.268755 18.069112 
Q 98.357818 18.069165 98.978105 18.577008 
Q 99.598393 19.084851 99.59835 19.958288 
Q 99.59832 20.583288 99.243611 21.019209 
Q 98.890465 21.453566 98.260769 21.609785 
Q 98.973261 21.775445 99.370113 22.25984 
Q 99.768526 22.742672 99.768492 23.439547 
Q 99.76844 24.500484 99.121538 25.06764 
Q 98.474635 25.633233 97.268385 25.633174 
Q 96.063697 25.633115 95.415288 25.067459 
Q 94.76844 24.500239 94.768492 23.439302 
Q 94.768526 22.742427 95.16855 22.259634 
Q 95.570136 21.775279 96.282644 21.609689 
z
M 95.921783 20.051858 
Q 95.921756 20.617483 96.274865 20.934688 
Q 96.629537 21.251893 97.268599 21.251924 
Q 97.904537 21.251956 98.262365 20.934786 
Q 98.621756 20.617616 98.621783 20.051991 
Q 98.621811 19.484803 98.262452 19.167598 
Q 97.904655 18.850393 97.268717 18.850362 
Q 96.629655 18.850331 96.274952 19.167501 
Q 95.921811 19.484671 95.921783 20.051858 
z
" clip-path="url(#p5fced9d21d)" style="stroke: #ffffff; stroke-width: 5"/>
    <path d="M 74.842382 18.199264 
L 76.170507 18.199329 
L 79.403021 24.297924 
L 79.403319 18.199487 
L 80.359569 18.199534 
L 80.359212 25.490159 
L 79.031087 25.490094 
L 75.800136 19.391498 
L 75.799837 25.489935 
L 74.842025 25.489889 
L 74.842382 18.199264 
z
M 82.283699 20.021503 
L 83.182136 20.021547 
L 83.181868 25.490297 
L 82.283431 25.490253 
L 82.283699 20.021503 
z
M 82.283803 17.891815 
L 83.182241 17.891859 
L 83.182185 19.030922 
L 82.283747 19.030878 
L 82.283803 17.891815 
z
M 84.60878 22.351304 
L 87.24003 22.351433 
L 87.239991 23.151433 
L 84.608741 23.151304 
L 84.60878 22.351304 
z
M 88.808007 18.199948 
L 92.679882 18.200137 
L 92.679841 19.031387 
L 89.711091 19.031242 
L 89.711004 20.817179 
Q 89.92507 20.743752 90.139134 20.707825 
Q 90.354761 20.671898 90.570386 20.671909 
Q 91.790698 20.671969 92.503165 21.340753 
Q 93.217195 22.009538 93.217139 23.151726 
Q 93.217082 24.328288 92.484237 24.981378 
Q 91.751393 25.632904 90.41858 25.632839 
Q 89.959205 25.632816 89.482647 25.554668 
Q 89.00765 25.47652 88.499846 25.320245 
L 88.499894 24.328057 
Q 88.938945 24.567141 89.407689 24.684352 
Q 89.876433 24.801562 90.398308 24.801588 
Q 91.243621 24.801629 91.73583 24.357903 
Q 92.229602 23.914178 92.229639 23.151678 
Q 92.229676 22.39074 91.735948 21.946966 
Q 91.243783 21.501629 90.39847 21.501588 
Q 90.003158 21.501569 89.609403 21.589049 
Q 89.217211 21.67653 88.807827 21.862448 
L 88.808007 18.199948 
z
M 97.268561 22.028487 
Q 96.565436 22.028452 96.162293 22.404995 
Q 95.760712 22.781538 95.76068 23.439351 
Q 95.760648 24.098726 96.162192 24.475308 
Q 96.565298 24.85189 97.268423 24.851924 
Q 97.971548 24.851959 98.376254 24.473854 
Q 98.782523 24.094186 98.782555 23.439499 
Q 98.782587 22.781686 98.37948 22.405104 
Q 97.977936 22.028522 97.268561 22.028487 
z
M 96.282644 21.609689 
Q 95.648277 21.453408 95.293611 21.019015 
Q 94.940507 20.58306 94.940538 19.95806 
Q 94.940581 19.084623 95.56248 18.576841 
Q 96.185943 18.069059 97.268755 18.069112 
Q 98.357818 18.069165 98.978105 18.577008 
Q 99.598393 19.084851 99.59835 19.958288 
Q 99.59832 20.583288 99.243611 21.019209 
Q 98.890465 21.453566 98.260769 21.609785 
Q 98.973261 21.775445 99.370113 22.25984 
Q 99.768526 22.742672 99.768492 23.439547 
Q 99.76844 24.500484 99.121538 25.06764 
Q 98.474635 25.633233 97.268385 25.633174 
Q 96.063697 25.633115 95.415288 25.067459 
Q 94.76844 24.500239 94.768492 23.439302 
Q 94.768526 22.742427 95.16855 22.259634 
Q 95.570136 21.775279 96.282644 21.609689 
z
M 95.921783 20.051858 
Q 95.921756 20.617483 96.274865 20.934688 
Q 96.629537 21.251893 97.268599 21.251924 
Q 97.904537 21.251956 98.262365 20.934786 
Q 98.621756 20.617616 98.621783 20.051991 
Q 98.621811 19.484803 98.262452 19.167598 
Q 97.904655 18.850393 97.268717 18.850362 
Q 96.629655 18.850331 96.274952 19.167501 
Q 95.921811 19.484671 95.921783 20.051858 
z
" clip-path="url(#p5fced9d21d)"/>
   </g>
   <g id="text_15">
    <path d="M 74.052523 135.696724 
L 75.273574 135.174277 
L 80.64471 139.509356 
L 78.245755 133.902579 
L 79.124911 133.526416 
L 81.99284 140.229267 
L 80.771789 140.751714 
L 75.40209 136.41602 
L 77.801045 142.022797 
L 76.920452 142.399574 
L 74.052523 135.696724 
z
M 81.610673 134.444477 
L 82.436678 134.091056 
L 84.587932 139.118912 
L 83.761927 139.472333 
L 81.610673 134.444477 
z
M 80.772914 132.486486 
L 81.598918 132.133066 
L 82.046994 133.180296 
L 81.220989 133.533717 
L 80.772914 132.486486 
z
M 84.664844 135.671676 
L 87.083961 134.636616 
L 87.398658 135.37212 
L 84.979542 136.40718 
L 84.664844 135.671676 
z
M 86.89223 130.203037 
L 90.451952 128.679949 
L 90.778943 129.444183 
L 88.049535 130.612007 
L 88.752073 132.253961 
Q 88.91999 132.102238 89.102658 131.984991 
Q 89.286762 131.86713 89.485003 131.782309 
Q 90.606933 131.302272 91.525059 131.63683 
Q 92.444621 131.970772 92.893925 133.020876 
Q 93.356752 134.102583 92.939941 134.991321 
Q 92.522514 135.878622 91.297154 136.402913 
Q 90.874814 136.583619 90.40594 136.699259 
Q 89.938503 136.814284 89.410166 136.87039 
L 89.019867 135.958193 
Q 89.517573 136.005267 89.99463 135.928614 
Q 90.471688 135.851961 90.951489 135.64667 
Q 91.728652 135.314147 92.0066 134.71256 
Q 92.285984 134.110358 91.986038 133.409331 
Q 91.686707 132.709741 91.058204 132.495994 
Q 90.430524 132.280195 89.653361 132.612718 
Q 89.289919 132.768223 88.962333 133.003559 
Q 88.636184 133.23828 88.332956 133.570264 
L 86.89223 130.203037 
z
M 95.567148 134.256415 
L 95.213728 133.43041 
Q 95.625077 133.446452 96.010418 133.381849 
Q 96.397195 133.316631 96.73478 133.17219 
Q 97.632611 132.788038 97.847079 131.982477 
Q 98.062984 131.176302 97.603751 129.916307 
Q 97.509078 130.413984 97.196795 130.79233 
Q 96.885948 131.170062 96.401838 131.377197 
Q 95.396266 131.807448 94.550168 131.45057 
Q 93.703454 131.092256 93.251691 130.036406 
Q 92.810377 129.004977 93.154147 128.1203 
Q 93.497302 127.234185 94.511492 126.800247 
Q 95.675082 126.302385 96.668737 126.932632 
Q 97.663215 127.560828 98.38911 129.25737 
Q 99.067062 130.841863 98.718756 132.109173 
Q 98.371886 133.375869 97.101993 133.919214 
Q 96.760099 134.065499 96.380697 134.147956 
Q 96.002732 134.229797 95.567148 134.256415 
z
M 96.155665 130.642965 
Q 96.76619 130.381741 96.944203 129.812716 
Q 97.123037 129.241639 96.811413 128.513319 
Q 96.502247 127.790744 95.965075 127.524323 
Q 95.42934 127.257288 94.818814 127.518512 
Q 94.208289 127.779736 94.031505 128.351634 
Q 93.854722 128.923533 94.163888 129.646107 
Q 94.475512 130.374428 95.010633 130.640027 
Q 95.545139 130.904189 96.155665 130.642965 
z
" clip-path="url(#p5fced9d21d)" style="stroke: #ffffff; stroke-width: 5"/>
    <path d="M 74.052523 135.696724 
L 75.273574 135.174277 
L 80.64471 139.509356 
L 78.245755 133.902579 
L 79.124911 133.526416 
L 81.99284 140.229267 
L 80.771789 140.751714 
L 75.40209 136.41602 
L 77.801045 142.022797 
L 76.920452 142.399574 
L 74.052523 135.696724 
z
M 81.610673 134.444477 
L 82.436678 134.091056 
L 84.587932 139.118912 
L 83.761927 139.472333 
L 81.610673 134.444477 
z
M 80.772914 132.486486 
L 81.598918 132.133066 
L 82.046994 133.180296 
L 81.220989 133.533717 
L 80.772914 132.486486 
z
M 84.664844 135.671676 
L 87.083961 134.636616 
L 87.398658 135.37212 
L 84.979542 136.40718 
L 84.664844 135.671676 
z
M 86.89223 130.203037 
L 90.451952 128.679949 
L 90.778943 129.444183 
L 88.049535 130.612007 
L 88.752073 132.253961 
Q 88.91999 132.102238 89.102658 131.984991 
Q 89.286762 131.86713 89.485003 131.782309 
Q 90.606933 131.302272 91.525059 131.63683 
Q 92.444621 131.970772 92.893925 133.020876 
Q 93.356752 134.102583 92.939941 134.991321 
Q 92.522514 135.878622 91.297154 136.402913 
Q 90.874814 136.583619 90.40594 136.699259 
Q 89.938503 136.814284 89.410166 136.87039 
L 89.019867 135.958193 
Q 89.517573 136.005267 89.99463 135.928614 
Q 90.471688 135.851961 90.951489 135.64667 
Q 91.728652 135.314147 92.0066 134.71256 
Q 92.285984 134.110358 91.986038 133.409331 
Q 91.686707 132.709741 91.058204 132.495994 
Q 90.430524 132.280195 89.653361 132.612718 
Q 89.289919 132.768223 88.962333 133.003559 
Q 88.636184 133.23828 88.332956 133.570264 
L 86.89223 130.203037 
z
M 95.567148 134.256415 
L 95.213728 133.43041 
Q 95.625077 133.446452 96.010418 133.381849 
Q 96.397195 133.316631 96.73478 133.17219 
Q 97.632611 132.788038 97.847079 131.982477 
Q 98.062984 131.176302 97.603751 129.916307 
Q 97.509078 130.413984 97.196795 130.79233 
Q 96.885948 131.170062 96.401838 131.377197 
Q 95.396266 131.807448 94.550168 131.45057 
Q 93.703454 131.092256 93.251691 130.036406 
Q 92.810377 129.004977 93.154147 128.1203 
Q 93.497302 127.234185 94.511492 126.800247 
Q 95.675082 126.302385 96.668737 126.932632 
Q 97.663215 127.560828 98.38911 129.25737 
Q 99.067062 130.841863 98.718756 132.109173 
Q 98.371886 133.375869 97.101993 133.919214 
Q 96.760099 134.065499 96.380697 134.147956 
Q 96.002732 134.229797 95.567148 134.256415 
z
M 96.155665 130.642965 
Q 96.76619 130.381741 96.944203 129.812716 
Q 97.123037 129.241639 96.811413 128.513319 
Q 96.502247 127.790744 95.965075 127.524323 
Q 95.42934 127.257288 94.818814 127.518512 
Q 94.208289 127.779736 94.031505 128.351634 
Q 93.854722 128.923533 94.163888 129.646107 
Q 94.475512 130.374428 95.010633 130.640027 
Q 95.545139 130.904189 96.155665 130.642965 
z
" clip-path="url(#p5fced9d21d)"/>
   </g>
   <g id="text_16">
    <path d="M 139.772955 27.471239 
L 141.10108 27.471206 
L 144.334046 33.569562 
L 144.333893 27.471125 
L 145.290143 27.471101 
L 145.290325 34.761726 
L 143.9622 34.761759 
L 140.730798 28.663402 
L 140.73095 34.76184 
L 139.773138 34.761864 
L 139.772955 27.471239 
z
M 147.214407 29.292928 
L 148.112845 29.292905 
L 148.112982 34.761655 
L 147.214544 34.761678 
L 147.214407 29.292928 
z
M 147.214354 27.16324 
L 148.112792 27.163218 
L 148.11282 28.30228 
L 147.214383 28.302303 
L 147.214354 27.16324 
z
M 149.539661 31.622557 
L 152.170911 31.622491 
L 152.170931 32.422491 
L 149.539681 32.422557 
L 149.539661 31.622557 
z
M 155.960537 30.723959 
Q 155.296474 30.723975 154.907423 31.178673 
Q 154.519935 31.631807 154.519954 32.422432 
Q 154.519974 33.20837 154.907486 33.666173 
Q 155.296559 34.122413 155.960622 34.122396 
Q 156.624684 34.12238 157.012173 33.66612 
Q 157.399662 33.208298 157.399642 32.42236 
Q 157.399622 31.631735 157.012111 31.17862 
Q 156.624599 30.723942 155.960537 30.723959 
z
M 157.918272 27.631722 
L 157.918294 28.53016 
Q 157.546415 28.355169 157.168288 28.262991 
Q 156.79016 28.16925 156.418285 28.16926 
Q 155.441723 28.169284 154.926114 28.828672 
Q 154.412068 29.48806 154.338664 30.820874 
Q 154.626154 30.395867 155.060523 30.169294 
Q 155.496455 29.94272 156.01833 29.942707 
Q 157.116767 29.94268 157.754284 30.609851 
Q 158.391801 31.27546 158.391829 32.422335 
Q 158.391858 33.545773 157.727812 34.225477 
Q 157.063767 34.903619 155.960642 34.903646 
Q 154.695017 34.903678 154.026242 33.934945 
Q 153.357468 32.964649 153.357422 31.124024 
Q 153.357379 29.395899 154.177665 28.367753 
Q 154.997952 27.339608 156.379202 27.339573 
Q 156.751077 27.339564 157.129204 27.412992 
Q 157.507331 27.48642 157.918272 27.631722 
z
M 162.199339 28.120678 
Q 161.438401 28.120697 161.054045 28.870706 
Q 160.671251 29.619153 160.671289 31.123841 
Q 160.671327 32.622278 161.054158 33.372269 
Q 161.438552 34.122259 162.199489 34.12224 
Q 162.966677 34.122221 163.34947 33.372211 
Q 163.733827 32.622202 163.733789 31.123764 
Q 163.733751 29.619077 163.349358 28.870649 
Q 162.966526 28.120658 162.199339 28.120678 
z
M 162.199319 27.339428 
Q 163.425882 27.339397 164.072781 28.309693 
Q 164.71968 29.278427 164.719727 31.123739 
Q 164.719773 32.964364 164.072922 33.934693 
Q 163.426071 34.903459 162.199509 34.90349 
Q 160.974509 34.903521 160.327609 33.934787 
Q 159.68071 32.964491 159.680664 31.123866 
Q 159.680618 29.278553 160.327469 28.309787 
Q 160.974319 27.339458 162.199319 27.339428 
z
" clip-path="url(#p5fced9d21d)" style="stroke: #ffffff; stroke-width: 5"/>
    <path d="M 139.772955 27.471239 
L 141.10108 27.471206 
L 144.334046 33.569562 
L 144.333893 27.471125 
L 145.290143 27.471101 
L 145.290325 34.761726 
L 143.9622 34.761759 
L 140.730798 28.663402 
L 140.73095 34.76184 
L 139.773138 34.761864 
L 139.772955 27.471239 
z
M 147.214407 29.292928 
L 148.112845 29.292905 
L 148.112982 34.761655 
L 147.214544 34.761678 
L 147.214407 29.292928 
z
M 147.214354 27.16324 
L 148.112792 27.163218 
L 148.11282 28.30228 
L 147.214383 28.302303 
L 147.214354 27.16324 
z
M 149.539661 31.622557 
L 152.170911 31.622491 
L 152.170931 32.422491 
L 149.539681 32.422557 
L 149.539661 31.622557 
z
M 155.960537 30.723959 
Q 155.296474 30.723975 154.907423 31.178673 
Q 154.519935 31.631807 154.519954 32.422432 
Q 154.519974 33.20837 154.907486 33.666173 
Q 155.296559 34.122413 155.960622 34.122396 
Q 156.624684 34.12238 157.012173 33.66612 
Q 157.399662 33.208298 157.399642 32.42236 
Q 157.399622 31.631735 157.012111 31.17862 
Q 156.624599 30.723942 155.960537 30.723959 
z
M 157.918272 27.631722 
L 157.918294 28.53016 
Q 157.546415 28.355169 157.168288 28.262991 
Q 156.79016 28.16925 156.418285 28.16926 
Q 155.441723 28.169284 154.926114 28.828672 
Q 154.412068 29.48806 154.338664 30.820874 
Q 154.626154 30.395867 155.060523 30.169294 
Q 155.496455 29.94272 156.01833 29.942707 
Q 157.116767 29.94268 157.754284 30.609851 
Q 158.391801 31.27546 158.391829 32.422335 
Q 158.391858 33.545773 157.727812 34.225477 
Q 157.063767 34.903619 155.960642 34.903646 
Q 154.695017 34.903678 154.026242 33.934945 
Q 153.357468 32.964649 153.357422 31.124024 
Q 153.357379 29.395899 154.177665 28.367753 
Q 154.997952 27.339608 156.379202 27.339573 
Q 156.751077 27.339564 157.129204 27.412992 
Q 157.507331 27.48642 157.918272 27.631722 
z
M 162.199339 28.120678 
Q 161.438401 28.120697 161.054045 28.870706 
Q 160.671251 29.619153 160.671289 31.123841 
Q 160.671327 32.622278 161.054158 33.372269 
Q 161.438552 34.122259 162.199489 34.12224 
Q 162.966677 34.122221 163.34947 33.372211 
Q 163.733827 32.622202 163.733789 31.123764 
Q 163.733751 29.619077 163.349358 28.870649 
Q 162.966526 28.120658 162.199339 28.120678 
z
M 162.199319 27.339428 
Q 163.425882 27.339397 164.072781 28.309693 
Q 164.71968 29.278427 164.719727 31.123739 
Q 164.719773 32.964364 164.072922 33.934693 
Q 163.426071 34.903459 162.199509 34.90349 
Q 160.974509 34.903521 160.327609 33.934787 
Q 159.68071 32.964491 159.680664 31.123866 
Q 159.680618 29.278553 160.327469 28.309787 
Q 160.974319 27.339458 162.199319 27.339428 
z
" clip-path="url(#p5fced9d21d)"/>
   </g>
   <g id="text_17">
    <path d="M 60.085625 254.941917 
L 60.834472 254.30059 
L 62.778781 256.570867 
L 65.501214 254.239322 
L 63.556905 251.969045 
L 64.305752 251.327718 
L 69.048118 256.865152 
L 68.299271 257.50648 
L 66.040905 254.869493 
L 63.318472 257.201038 
L 65.576838 259.838024 
L 64.827991 260.479352 
L 60.085625 254.941917 
z
M 72.137785 250.322767 
L 72.423384 250.656248 
L 69.285584 253.343521 
Q 69.934403 254.009836 70.630257 254.053682 
Q 71.326111 254.097528 72.004939 253.516166 
Q 72.397758 253.179749 72.684515 252.767531 
Q 72.971272 252.355313 73.169941 251.849846 
L 73.722844 252.495445 
Q 73.488092 252.965985 73.172523 253.37819 
Q 72.856955 253.790396 72.460576 254.129862 
Q 71.466069 254.981578 70.390772 254.900627 
Q 69.314458 254.818491 68.468841 253.831104 
Q 67.595782 252.811675 67.634191 251.741953 
Q 67.671584 250.671043 68.606753 249.870147 
Q 69.444607 249.152592 70.394813 249.274842 
Q 71.344003 249.395906 72.137785 250.322767 
z
M 71.283631 250.706615 
Q 70.797802 250.153748 70.206018 250.082491 
Q 69.613218 250.010046 69.108844 250.442002 
Q 68.538011 250.930874 68.471488 251.547403 
Q 68.404966 252.163933 68.854833 252.794914 
L 71.283631 250.706615 
z
M 72.796453 249.522094 
L 74.794961 247.810533 
L 75.31534 248.418155 
L 73.316832 250.129717 
L 72.796453 249.522094 
z
M 75.89497 242.533946 
L 76.53504 247.11026 
L 78.426739 245.490172 
L 75.89497 242.533946 
z
M 75.138966 242.049944 
L 76.081256 241.242949 
L 79.172026 244.851894 
L 79.96241 244.174994 
L 80.496002 244.798044 
L 79.705618 245.474944 
L 80.823622 246.780383 
L 80.078335 247.418661 
L 78.960332 246.113222 
L 76.46101 248.25369 
L 75.842042 247.530952 
L 75.138966 242.049944 
z
M 83.750764 239.11201 
Q 83.670864 239.700909 83.769149 240.13515 
Q 83.866418 240.568204 84.145918 240.894564 
Q 84.609382 241.435728 85.310159 241.458899 
Q 86.012123 241.481055 86.605505 240.972871 
Q 86.957973 240.671011 87.165741 240.291469 
Q 87.372492 239.910741 87.440987 239.44064 
L 83.750764 239.11201 
z
M 83.918398 238.248426 
L 87.453386 238.563941 
Q 87.389371 238.044807 87.189419 237.563917 
Q 86.989467 237.083028 86.650189 236.641229 
L 87.339698 236.05072 
Q 87.714531 236.577272 87.931701 237.222392 
Q 88.149041 237.865308 88.203125 238.627469 
L 90.143565 238.798603 
L 89.208396 239.599499 
L 88.211401 239.509091 
Q 88.108253 240.16933 87.823991 240.692557 
Q 87.53973 241.215783 87.054344 241.631477 
Q 86.159525 242.397817 85.155215 242.373332 
Q 84.150904 242.348848 83.467906 241.551343 
Q 83.06136 241.076638 82.952648 240.447664 
Q 82.844107 239.816486 83.027304 239.023919 
Q 82.649065 238.942582 82.357119 238.791456 
Q 82.065344 238.638127 81.875284 238.416203 
Q 81.361002 237.815701 81.459768 237.097499 
Q 81.558534 236.379297 82.240922 235.794886 
Q 82.54948 235.530631 82.911395 235.335883 
Q 83.274496 235.140119 83.705024 235.00387 
L 84.283337 235.679138 
Q 83.811132 235.781136 83.440757 235.941984 
Q 83.069367 236.101646 82.817773 236.317116 
Q 82.428515 236.650484 82.362076 237.065336 
Q 82.294622 237.479001 82.574122 237.80536 
Q 82.735725 237.994056 83.008542 238.091619 
Q 83.282546 238.188165 83.918398 238.248426 
z
M 88.794153 230.355377 
L 91.975863 227.630498 
L 92.51657 228.261856 
L 90.083707 230.345407 
L 91.481211 231.977206 
L 93.676722 230.096928 
L 94.216412 230.727099 
L 92.020902 232.607377 
L 94.285366 235.251484 
L 93.536519 235.892811 
L 88.794153 230.355377 
z
M 99.086048 227.243752 
L 99.371647 227.577232 
L 96.233847 230.264506 
Q 96.882666 230.930821 97.57852 230.974666 
Q 98.274374 231.018512 98.953202 230.437151 
Q 99.34602 230.100733 99.632778 229.688516 
Q 99.919535 229.276298 100.118203 228.770831 
L 100.671107 229.41643 
Q 100.436354 229.886969 100.120786 230.299175 
Q 99.805217 230.711381 99.408839 231.050847 
Q 98.414332 231.902562 97.339034 231.821612 
Q 96.262721 231.739475 95.417104 230.752089 
Q 94.544045 229.73266 94.582454 228.662937 
Q 94.619847 227.592028 95.555016 226.791131 
Q 96.39287 226.073577 97.343076 226.195827 
Q 98.292266 226.316891 99.086048 227.243752 
z
M 98.231894 227.6276 
Q 97.746065 227.074733 97.154281 227.003475 
Q 96.561481 226.931031 96.057107 227.362987 
Q 95.486274 227.851859 95.419751 228.468388 
Q 95.353228 229.084918 95.803096 229.715898 
L 98.231894 227.6276 
z
M 99.744715 226.443079 
L 101.743223 224.731518 
L 102.263603 225.33914 
L 100.265095 227.050701 
L 99.744715 226.443079 
z
M 100.233506 220.558493 
L 103.174303 218.039937 
L 103.71501 218.671294 
L 101.460161 220.602391 
L 102.621868 221.95886 
Q 102.736685 221.76384 102.875896 221.597303 
Q 103.016292 221.429748 103.180066 221.28949 
Q 104.106927 220.495708 105.083096 220.540179 
Q 106.060451 220.583634 106.803415 221.451157 
Q 107.568739 222.344789 107.436989 223.317532 
Q 107.304222 224.289088 106.291913 225.156049 
Q 105.943005 225.45486 105.530224 225.705514 
Q 105.11863 225.955151 104.631295 226.166794 
L 103.985903 225.4132 
Q 104.474887 225.309176 104.907143 225.093273 
Q 105.3394 224.87737 105.735778 224.537904 
Q 106.377817 223.988049 106.462999 223.330853 
Q 106.549368 222.672641 106.053381 222.093501 
Q 105.558411 221.515548 104.894746 221.499679 
Q 104.231251 221.481607 103.589212 222.031461 
Q 103.288961 222.288602 103.046814 222.611185 
Q 102.805853 222.932752 102.615869 223.340264 
L 100.233506 220.558493 
z
M 108.869506 217.445542 
Q 108.365132 217.877498 108.365391 218.475921 
Q 108.36582 219.072141 108.880101 219.672643 
Q 109.391333 220.269585 109.983446 220.365247 
Q 110.575729 220.458706 111.080103 220.026751 
Q 111.584477 219.594795 111.582015 218.996201 
Q 111.578537 218.396421 111.067305 217.799479 
Q 110.553023 217.198978 109.96396 217.106875 
Q 109.37388 217.013586 108.869506 217.445542 
z
M 108.34513 213.823432 
L 108.929541 214.50582 
Q 108.533258 214.614798 108.186096 214.79074 
Q 107.837918 214.965495 107.555468 215.20739 
Q 106.813741 215.842619 106.851016 216.678834 
Q 106.889478 217.514032 107.700661 218.57411 
Q 107.642574 218.064299 107.82512 217.609669 
Q 108.008854 217.154022 108.405233 216.814555 
Q 109.239527 216.10005 110.157715 216.19212 
Q 111.074886 216.283003 111.820899 217.154087 
Q 112.551666 218.007369 112.489412 218.955567 
Q 112.426141 219.902577 111.588286 220.620132 
Q 110.627009 221.443389 109.488927 221.142601 
Q 108.349829 220.840626 107.152549 219.44262 
Q 106.028448 218.130061 105.982729 216.815578 
Q 105.93701 215.501096 106.986108 214.602628 
Q 107.268558 214.360733 107.603524 214.17055 
Q 107.938489 213.980367 108.34513 213.823432 
z
" clip-path="url(#p5fced9d21d)" style="stroke: #ffffff; stroke-width: 5"/>
    <path d="M 60.085625 254.941917 
L 60.834472 254.30059 
L 62.778781 256.570867 
L 65.501214 254.239322 
L 63.556905 251.969045 
L 64.305752 251.327718 
L 69.048118 256.865152 
L 68.299271 257.50648 
L 66.040905 254.869493 
L 63.318472 257.201038 
L 65.576838 259.838024 
L 64.827991 260.479352 
L 60.085625 254.941917 
z
M 72.137785 250.322767 
L 72.423384 250.656248 
L 69.285584 253.343521 
Q 69.934403 254.009836 70.630257 254.053682 
Q 71.326111 254.097528 72.004939 253.516166 
Q 72.397758 253.179749 72.684515 252.767531 
Q 72.971272 252.355313 73.169941 251.849846 
L 73.722844 252.495445 
Q 73.488092 252.965985 73.172523 253.37819 
Q 72.856955 253.790396 72.460576 254.129862 
Q 71.466069 254.981578 70.390772 254.900627 
Q 69.314458 254.818491 68.468841 253.831104 
Q 67.595782 252.811675 67.634191 251.741953 
Q 67.671584 250.671043 68.606753 249.870147 
Q 69.444607 249.152592 70.394813 249.274842 
Q 71.344003 249.395906 72.137785 250.322767 
z
M 71.283631 250.706615 
Q 70.797802 250.153748 70.206018 250.082491 
Q 69.613218 250.010046 69.108844 250.442002 
Q 68.538011 250.930874 68.471488 251.547403 
Q 68.404966 252.163933 68.854833 252.794914 
L 71.283631 250.706615 
z
M 72.796453 249.522094 
L 74.794961 247.810533 
L 75.31534 248.418155 
L 73.316832 250.129717 
L 72.796453 249.522094 
z
M 75.89497 242.533946 
L 76.53504 247.11026 
L 78.426739 245.490172 
L 75.89497 242.533946 
z
M 75.138966 242.049944 
L 76.081256 241.242949 
L 79.172026 244.851894 
L 79.96241 244.174994 
L 80.496002 244.798044 
L 79.705618 245.474944 
L 80.823622 246.780383 
L 80.078335 247.418661 
L 78.960332 246.113222 
L 76.46101 248.25369 
L 75.842042 247.530952 
L 75.138966 242.049944 
z
M 83.750764 239.11201 
Q 83.670864 239.700909 83.769149 240.13515 
Q 83.866418 240.568204 84.145918 240.894564 
Q 84.609382 241.435728 85.310159 241.458899 
Q 86.012123 241.481055 86.605505 240.972871 
Q 86.957973 240.671011 87.165741 240.291469 
Q 87.372492 239.910741 87.440987 239.44064 
L 83.750764 239.11201 
z
M 83.918398 238.248426 
L 87.453386 238.563941 
Q 87.389371 238.044807 87.189419 237.563917 
Q 86.989467 237.083028 86.650189 236.641229 
L 87.339698 236.05072 
Q 87.714531 236.577272 87.931701 237.222392 
Q 88.149041 237.865308 88.203125 238.627469 
L 90.143565 238.798603 
L 89.208396 239.599499 
L 88.211401 239.509091 
Q 88.108253 240.16933 87.823991 240.692557 
Q 87.53973 241.215783 87.054344 241.631477 
Q 86.159525 242.397817 85.155215 242.373332 
Q 84.150904 242.348848 83.467906 241.551343 
Q 83.06136 241.076638 82.952648 240.447664 
Q 82.844107 239.816486 83.027304 239.023919 
Q 82.649065 238.942582 82.357119 238.791456 
Q 82.065344 238.638127 81.875284 238.416203 
Q 81.361002 237.815701 81.459768 237.097499 
Q 81.558534 236.379297 82.240922 235.794886 
Q 82.54948 235.530631 82.911395 235.335883 
Q 83.274496 235.140119 83.705024 235.00387 
L 84.283337 235.679138 
Q 83.811132 235.781136 83.440757 235.941984 
Q 83.069367 236.101646 82.817773 236.317116 
Q 82.428515 236.650484 82.362076 237.065336 
Q 82.294622 237.479001 82.574122 237.80536 
Q 82.735725 237.994056 83.008542 238.091619 
Q 83.282546 238.188165 83.918398 238.248426 
z
M 88.794153 230.355377 
L 91.975863 227.630498 
L 92.51657 228.261856 
L 90.083707 230.345407 
L 91.481211 231.977206 
L 93.676722 230.096928 
L 94.216412 230.727099 
L 92.020902 232.607377 
L 94.285366 235.251484 
L 93.536519 235.892811 
L 88.794153 230.355377 
z
M 99.086048 227.243752 
L 99.371647 227.577232 
L 96.233847 230.264506 
Q 96.882666 230.930821 97.57852 230.974666 
Q 98.274374 231.018512 98.953202 230.437151 
Q 99.34602 230.100733 99.632778 229.688516 
Q 99.919535 229.276298 100.118203 228.770831 
L 100.671107 229.41643 
Q 100.436354 229.886969 100.120786 230.299175 
Q 99.805217 230.711381 99.408839 231.050847 
Q 98.414332 231.902562 97.339034 231.821612 
Q 96.262721 231.739475 95.417104 230.752089 
Q 94.544045 229.73266 94.582454 228.662937 
Q 94.619847 227.592028 95.555016 226.791131 
Q 96.39287 226.073577 97.343076 226.195827 
Q 98.292266 226.316891 99.086048 227.243752 
z
M 98.231894 227.6276 
Q 97.746065 227.074733 97.154281 227.003475 
Q 96.561481 226.931031 96.057107 227.362987 
Q 95.486274 227.851859 95.419751 228.468388 
Q 95.353228 229.084918 95.803096 229.715898 
L 98.231894 227.6276 
z
M 99.744715 226.443079 
L 101.743223 224.731518 
L 102.263603 225.33914 
L 100.265095 227.050701 
L 99.744715 226.443079 
z
M 100.233506 220.558493 
L 103.174303 218.039937 
L 103.71501 218.671294 
L 101.460161 220.602391 
L 102.621868 221.95886 
Q 102.736685 221.76384 102.875896 221.597303 
Q 103.016292 221.429748 103.180066 221.28949 
Q 104.106927 220.495708 105.083096 220.540179 
Q 106.060451 220.583634 106.803415 221.451157 
Q 107.568739 222.344789 107.436989 223.317532 
Q 107.304222 224.289088 106.291913 225.156049 
Q 105.943005 225.45486 105.530224 225.705514 
Q 105.11863 225.955151 104.631295 226.166794 
L 103.985903 225.4132 
Q 104.474887 225.309176 104.907143 225.093273 
Q 105.3394 224.87737 105.735778 224.537904 
Q 106.377817 223.988049 106.462999 223.330853 
Q 106.549368 222.672641 106.053381 222.093501 
Q 105.558411 221.515548 104.894746 221.499679 
Q 104.231251 221.481607 103.589212 222.031461 
Q 103.288961 222.288602 103.046814 222.611185 
Q 102.805853 222.932752 102.615869 223.340264 
L 100.233506 220.558493 
z
M 108.869506 217.445542 
Q 108.365132 217.877498 108.365391 218.475921 
Q 108.36582 219.072141 108.880101 219.672643 
Q 109.391333 220.269585 109.983446 220.365247 
Q 110.575729 220.458706 111.080103 220.026751 
Q 111.584477 219.594795 111.582015 218.996201 
Q 111.578537 218.396421 111.067305 217.799479 
Q 110.553023 217.198978 109.96396 217.106875 
Q 109.37388 217.013586 108.869506 217.445542 
z
M 108.34513 213.823432 
L 108.929541 214.50582 
Q 108.533258 214.614798 108.186096 214.79074 
Q 107.837918 214.965495 107.555468 215.20739 
Q 106.813741 215.842619 106.851016 216.678834 
Q 106.889478 217.514032 107.700661 218.57411 
Q 107.642574 218.064299 107.82512 217.609669 
Q 108.008854 217.154022 108.405233 216.814555 
Q 109.239527 216.10005 110.157715 216.19212 
Q 111.074886 216.283003 111.820899 217.154087 
Q 112.551666 218.007369 112.489412 218.955567 
Q 112.426141 219.902577 111.588286 220.620132 
Q 110.627009 221.443389 109.488927 221.142601 
Q 108.349829 220.840626 107.152549 219.44262 
Q 106.028448 218.130061 105.982729 216.815578 
Q 105.93701 215.501096 106.986108 214.602628 
Q 107.268558 214.360733 107.603524 214.17055 
Q 107.938489 213.980367 108.34513 213.823432 
z
" clip-path="url(#p5fced9d21d)"/>
   </g>
   <g id="patch_3">
    <path d="M 51.378125 273.312 
L 51.378125 7.2 
" style="fill: none; stroke: #000000; stroke-width: 0.8; stroke-linejoin: miter; stroke-linecap: square"/>
   </g>
   <g id="patch_4">
    <path d="M 408.498125 273.312 
L 408.498125 7.2 
" style="fill: none; stroke: #000000; stroke-width: 0.8; stroke-linejoin: miter; stroke-linecap: square"/>
   </g>
   <g id="patch_5">
    <path d="M 51.378125 273.312 
L 408.498125 273.312 
" style="fill: none; stroke: #000000; stroke-width: 0.8; stroke-linejoin: miter; stroke-linecap: square"/>
   </g>
   <g id="patch_6">
    <path d="M 51.378125 7.2 
L 408.498125 7.2 
" style="fill: none; stroke: #000000; stroke-width: 0.8; stroke-linejoin: miter; stroke-linecap: square"/>
   </g>
  </g>
 </g>
 <defs>
  <clipPath id="p5fced9d21d">
   <rect x="51.378125" y="7.2" width="357.12" height="266.112"/>
  </clipPath>
 </defs>
</svg>
